<svg id="my-svg" width="100%" xmlns="http://www.w3.org/2000/svg" xmlns:xlink="http://www.w3.org/1999/xlink" class="flowchart" style="max-width: 3471.24px; background-color: white;" viewBox="0 0 3471.2421875 421.25" role="graphics-document document" aria-roledescription="flowchart-v2"><style>#my-svg{font-family:"trebuchet ms",verdana,arial,sans-serif;font-size:16px;fill:#333;}@keyframes edge-animation-frame{from{stroke-dashoffset:0;}}@keyframes dash{to{stroke-dashoffset:0;}}#my-svg .edge-animation-slow{stroke-dasharray:9,5!important;stroke-dashoffset:900;animation:dash 50s linear infinite;stroke-linecap:round;}#my-svg .edge-animation-fast{stroke-dasharray:9,5!important;stroke-dashoffset:900;animation:dash 20s linear infinite;stroke-linecap:round;}#my-svg .error-icon{fill:#552222;}#my-svg .error-text{fill:#552222;stroke:#552222;}#my-svg .edge-thickness-normal{stroke-width:1px;}#my-svg .edge-thickness-thick{stroke-width:3.5px;}#my-svg .edge-pattern-solid{stroke-dasharray:0;}#my-svg .edge-thickness-invisible{stroke-width:0;fill:none;}#my-svg .edge-pattern-dashed{stroke-dasharray:3;}#my-svg .edge-pattern-dotted{stroke-dasharray:2;}#my-svg .marker{fill:#333333;stroke:#333333;}#my-svg .marker.cross{stroke:#333333;}#my-svg svg{font-family:"trebuchet ms",verdana,arial,sans-serif;font-size:16px;}#my-svg p{margin:0;}#my-svg .label{font-family:"trebuchet ms",verdana,arial,sans-serif;color:#333;}#my-svg .cluster-label text{fill:#333;}#my-svg .cluster-label span{color:#333;}#my-svg .cluster-label span p{background-color:transparent;}#my-svg .label text,#my-svg span{fill:#333;color:#333;}#my-svg .node rect,#my-svg .node circle,#my-svg .node ellipse,#my-svg .node polygon,#my-svg .node path{fill:#ECECFF;stroke:#9370DB;stroke-width:1px;}#my-svg .rough-node .label text,#my-svg .node .label text,#my-svg .image-shape .label,#my-svg .icon-shape .label{text-anchor:middle;}#my-svg .node .katex path{fill:#000;stroke:#000;stroke-width:1px;}#my-svg .rough-node .label,#my-svg .node .label,#my-svg .image-shape .label,#my-svg .icon-shape .label{text-align:center;}#my-svg .node.clickable{cursor:pointer;}#my-svg .root .anchor path{fill:#333333!important;stroke-width:0;stroke:#333333;}#my-svg .arrowheadPath{fill:#333333;}#my-svg .edgePath .path{stroke:#333333;stroke-width:2.0px;}#my-svg .flowchart-link{stroke:#333333;fill:none;}#my-svg .edgeLabel{background-color:rgba(232,232,232, 0.8);text-align:center;}#my-svg .edgeLabel p{background-color:rgba(232,232,232, 0.8);}#my-svg .edgeLabel rect{opacity:0.5;background-color:rgba(232,232,232, 0.8);fill:rgba(232,232,232, 0.8);}#my-svg .labelBkg{background-color:rgba(232, 232, 232, 0.5);}#my-svg .cluster rect{fill:#ffffde;stroke:#aaaa33;stroke-width:1px;}#my-svg .cluster text{fill:#333;}#my-svg .cluster span{color:#333;}#my-svg div.mermaidTooltip{position:absolute;text-align:center;max-width:200px;padding:2px;font-family:"trebuchet ms",verdana,arial,sans-serif;font-size:12px;background:hsl(80, 100%, 96.2745098039%);border:1px solid #aaaa33;border-radius:2px;pointer-events:none;z-index:100;}#my-svg .flowchartTitleText{text-anchor:middle;font-size:18px;fill:#333;}#my-svg rect.text{fill:none;stroke-width:0;}#my-svg .icon-shape,#my-svg .image-shape{background-color:rgba(232,232,232, 0.8);text-align:center;}#my-svg .icon-shape p,#my-svg .image-shape p{background-color:rgba(232,232,232, 0.8);padding:2px;}#my-svg .icon-shape rect,#my-svg .image-shape rect{opacity:0.5;background-color:rgba(232,232,232, 0.8);fill:rgba(232,232,232, 0.8);}#my-svg .label-icon{display:inline-block;height:1em;overflow:visible;vertical-align:-0.125em;}#my-svg .node .label-icon path{fill:currentColor;stroke:revert;stroke-width:revert;}#my-svg :root{--mermaid-font-family:"trebuchet ms",verdana,arial,sans-serif;}</style><g><marker id="my-svg_flowchart-v2-pointEnd" class="marker flowchart-v2" viewBox="0 0 10 10" refX="5" refY="5" markerUnits="userSpaceOnUse" markerWidth="8" markerHeight="8" orient="auto"><path d="M 0 0 L 10 5 L 0 10 z" class="arrowMarkerPath" style="stroke-width: 1; stroke-dasharray: 1, 0;"/></marker><marker id="my-svg_flowchart-v2-pointStart" class="marker flowchart-v2" viewBox="0 0 10 10" refX="4.5" refY="5" markerUnits="userSpaceOnUse" markerWidth="8" markerHeight="8" orient="auto"><path d="M 0 5 L 10 10 L 10 0 z" class="arrowMarkerPath" style="stroke-width: 1; stroke-dasharray: 1, 0;"/></marker><marker id="my-svg_flowchart-v2-circleEnd" class="marker flowchart-v2" viewBox="0 0 10 10" refX="11" refY="5" markerUnits="userSpaceOnUse" markerWidth="11" markerHeight="11" orient="auto"><circle cx="5" cy="5" r="5" class="arrowMarkerPath" style="stroke-width: 1; stroke-dasharray: 1, 0;"/></marker><marker id="my-svg_flowchart-v2-circleStart" class="marker flowchart-v2" viewBox="0 0 10 10" refX="-1" refY="5" markerUnits="userSpaceOnUse" markerWidth="11" markerHeight="11" orient="auto"><circle cx="5" cy="5" r="5" class="arrowMarkerPath" style="stroke-width: 1; stroke-dasharray: 1, 0;"/></marker><marker id="my-svg_flowchart-v2-crossEnd" class="marker cross flowchart-v2" viewBox="0 0 11 11" refX="12" refY="5.2" markerUnits="userSpaceOnUse" markerWidth="11" markerHeight="11" orient="auto"><path d="M 1,1 l 9,9 M 10,1 l -9,9" class="arrowMarkerPath" style="stroke-width: 2; stroke-dasharray: 1, 0;"/></marker><marker id="my-svg_flowchart-v2-crossStart" class="marker cross flowchart-v2" viewBox="0 0 11 11" refX="-1" refY="5.2" markerUnits="userSpaceOnUse" markerWidth="11" markerHeight="11" orient="auto"><path d="M 1,1 l 9,9 M 10,1 l -9,9" class="arrowMarkerPath" style="stroke-width: 2; stroke-dasharray: 1, 0;"/></marker><g class="root"><g class="clusters"/><g class="edgePaths"><path d="M69.784,101.25L87.665,133.667C105.546,166.083,141.308,230.917,171.071,263.333C200.833,295.75,224.596,295.75,236.478,295.75L248.359,295.75" id="L_U_TMUX_0" class="edge-thickness-normal edge-pattern-solid edge-thickness-normal edge-pattern-solid flowchart-link" style=";" data-edge="true" data-et="edge" data-id="L_U_TMUX_0" data-points="W3sieCI6NjkuNzgzODYwMDQ1MTQ2NzIsInkiOjEwMS4yNX0seyJ4IjoxNzcuMDcwMzEyNSwieSI6Mjk1Ljc1fSx7IngiOjI1Mi4zNTkzNzUsInkiOjI5NS43NX1d" marker-end="url(#my-svg_flowchart-v2-pointEnd)"/><path d="M101.781,52.854L114.329,47.128C126.878,41.403,151.974,29.951,198.647,24.226C245.32,18.5,313.57,18.5,384.715,18.5C455.859,18.5,529.898,18.5,591.215,18.5C652.531,18.5,701.125,18.5,747.151,18.5C793.177,18.5,836.635,18.5,892.906,18.5C949.177,18.5,1018.26,18.5,1089.69,18.5C1161.12,18.5,1234.896,18.5,1308.672,18.5C1382.448,18.5,1456.224,18.5,1535.928,18.5C1615.632,18.5,1701.263,18.5,1784.281,18.5C1867.299,18.5,1947.704,18.5,2020.921,18.5C2094.138,18.5,2160.167,18.5,2216.229,30.893C2272.291,43.285,2318.386,68.07,2341.434,80.463L2364.481,92.856" id="L_U_FE_0" class="edge-thickness-normal edge-pattern-solid edge-thickness-normal edge-pattern-solid flowchart-link" style=";" data-edge="true" data-et="edge" data-id="L_U_FE_0" data-points="W3sieCI6MTAxLjc4MTI1LCJ5Ijo1Mi44NTQwMzQ3ODQ4MzI3OX0seyJ4IjoxNzcuMDcwMzEyNSwieSI6MTguNX0seyJ4IjozODEuODIwMzEyNSwieSI6MTguNX0seyJ4Ijo2MDMuOTM3NSwieSI6MTguNX0seyJ4Ijo3NDkuNzE4NzUsInkiOjE4LjV9LHsieCI6ODgwLjA5Mzc1LCJ5IjoxOC41fSx7IngiOjEwODcuMzQzNzUsInkiOjE4LjV9LHsieCI6MTMwOC42NzE4NzUsInkiOjE4LjV9LHsieCI6MTUzMCwieSI6MTguNX0seyJ4IjoxNzg2Ljg5NDUzMTI1LCJ5IjoxOC41fSx7IngiOjIwMjguMTA5Mzc1LCJ5IjoxOC41fSx7IngiOjIyMjYuMTk1MzEyNSwieSI6MTguNX0seyJ4IjoyMzY4LjAwNDM4ODYxOTg1NDYsInkiOjk0Ljc1fV0=" marker-end="url(#my-svg_flowchart-v2-pointEnd)"/><path d="M101.781,68.589L114.329,67.074C126.878,65.559,151.974,62.53,198.647,61.015C245.32,59.5,313.57,59.5,384.715,59.5C455.859,59.5,529.898,59.5,591.215,59.5C652.531,59.5,701.125,59.5,747.151,59.5C793.177,59.5,836.635,59.5,892.906,59.5C949.177,59.5,1018.26,59.5,1089.69,59.5C1161.12,59.5,1234.896,59.5,1308.672,59.5C1382.448,59.5,1456.224,59.5,1535.928,59.5C1615.632,59.5,1701.263,59.5,1784.281,59.5C1867.299,59.5,1947.704,59.5,2020.921,59.5C2094.138,59.5,2160.167,59.5,2210.67,65.169C2261.172,70.839,2296.149,82.178,2313.638,87.847L2331.126,93.516" id="L_U_FE_2" class="edge-thickness-normal edge-pattern-solid edge-thickness-normal edge-pattern-solid flowchart-link" style=";" data-edge="true" data-et="edge" data-id="L_U_FE_2" data-points="W3sieCI6MTAxLjc4MTI1LCJ5Ijo2OC41ODkxODQwOTEwNTQ0Mn0seyJ4IjoxNzcuMDcwMzEyNSwieSI6NTkuNX0seyJ4IjozODEuODIwMzEyNSwieSI6NTkuNX0seyJ4Ijo2MDMuOTM3NSwieSI6NTkuNX0seyJ4Ijo3NDkuNzE4NzUsInkiOjU5LjV9LHsieCI6ODgwLjA5Mzc1LCJ5Ijo1OS41fSx7IngiOjEwODcuMzQzNzUsInkiOjU5LjV9LHsieCI6MTMwOC42NzE4NzUsInkiOjU5LjV9LHsieCI6MTUzMCwieSI6NTkuNX0seyJ4IjoxNzg2Ljg5NDUzMTI1LCJ5Ijo1OS41fSx7IngiOjIwMjguMTA5Mzc1LCJ5Ijo1OS41fSx7IngiOjIyMjYuMTk1MzEyNSwieSI6NTkuNX0seyJ4IjoyMzM0LjkzMTQ3NTkwMzYxNDIsInkiOjk0Ljc1fV0=" marker-end="url(#my-svg_flowchart-v2-pointEnd)"/><path d="M2526.477,100.963L2544.022,97.595C2561.568,94.226,2596.659,87.488,2633.551,86.042C2670.442,84.595,2709.135,88.441,2728.481,90.364L2747.827,92.286" id="L_FE_ASRP_0" class="edge-thickness-normal edge-pattern-solid edge-thickness-normal edge-pattern-solid flowchart-link" style=";" data-edge="true" data-et="edge" data-id="L_FE_ASRP_0" data-points="W3sieCI6MjUyNi40NzY1NjI1LCJ5IjoxMDAuOTYzNDg2MDIzNzA4NDd9LHsieCI6MjYzMS43NSwieSI6ODAuNzV9LHsieCI6Mjc1MS44MDc0MDY2ODY4OTYsInkiOjkyLjY4MjA2MTYyNjIwODUyfV0=" marker-end="url(#my-svg_flowchart-v2-pointEnd)"/><path d="M2951.817,90.132L2973.056,87.693C2994.295,85.255,3036.772,80.377,3078.013,79.966C3119.254,79.556,3159.258,83.611,3179.26,85.639L3199.263,87.667" id="L_ASRP_ASR_0" class="edge-thickness-normal edge-pattern-solid edge-thickness-normal edge-pattern-solid flowchart-link" style=";" data-edge="true" data-et="edge" data-id="L_ASRP_ASR_0" data-points="W3sieCI6Mjk1MS44MTY4NjI2OTUxMDQ2LCJ5Ijo5MC4xMzE4OTk2MDk3OTA3MX0seyJ4IjozMDc5LjI1LCJ5Ijo3NS41fSx7IngiOjMyMDMuMjQyMTg3NSwieSI6ODguMDcwNDYwNzY3MTI0OTd9XQ==" marker-end="url(#my-svg_flowchart-v2-pointEnd)"/><path d="M3203.242,118.064L3182.577,120.736C3161.911,123.409,3120.581,128.755,3077.279,128.307C3033.977,127.859,2988.703,121.618,2966.066,118.498L2943.43,115.377" id="L_ASR_ASRP_0" class="edge-thickness-normal edge-pattern-solid edge-thickness-normal edge-pattern-solid flowchart-link" style=";" data-edge="true" data-et="edge" data-id="L_ASR_ASRP_0" data-points="W3sieCI6MzIwMy4yNDIxODc1LCJ5IjoxMTguMDYzNTA4NDkyNzk4NTl9LHsieCI6MzA3OS4yNSwieSI6MTM0LjA5OTk5ODQ3NDEyMTF9LHsieCI6MjkzOS40NjcyMDY2ODYyMDYsInkiOjExNC44MzEyMTE2Mjc1ODc4OX1d" marker-end="url(#my-svg_flowchart-v2-pointEnd)"/><path d="M2754.251,121.25L2733.834,125.458C2713.418,129.667,2672.584,138.083,2635.284,140.335C2597.983,142.586,2564.217,138.672,2547.333,136.715L2530.45,134.759" id="L_ASRP_FE_0" class="edge-thickness-normal edge-pattern-solid edge-thickness-normal edge-pattern-solid flowchart-link" style=";" data-edge="true" data-et="edge" data-id="L_ASRP_FE_0" data-points="W3sieCI6Mjc1NC4yNTEyOTQ4ODk1MDMsInkiOjEyMS4yNX0seyJ4IjoyNjMxLjc1LCJ5IjoxNDYuNX0seyJ4IjoyNTI2LjQ3NjU2MjUsInkiOjEzNC4yOTc5NTY2MDc2Mzk0fV0=" marker-end="url(#my-svg_flowchart-v2-pointEnd)"/><path d="M2379.31,148.75L2353.791,166.458C2328.272,184.167,2277.233,219.583,2218.7,237.292C2160.167,255,2094.138,255,2020.921,255C1947.704,255,1867.299,255,1806.614,254.542C1745.929,254.083,1704.964,253.166,1684.482,252.708L1663.999,252.249" id="L_FE_WS_0" class="edge-thickness-normal edge-pattern-solid edge-thickness-normal edge-pattern-solid flowchart-link" style=";" data-edge="true" data-et="edge" data-id="L_FE_WS_0" data-points="W3sieCI6MjM3OS4zMDk2ODU3NDEwODgzLCJ5IjoxNDguNzV9LHsieCI6MjIyNi4xOTUzMTI1LCJ5IjoyNTV9LHsieCI6MjAyOC4xMDkzNzUsInkiOjI1NX0seyJ4IjoxNzg2Ljg5NDUzMTI1LCJ5IjoyNTV9LHsieCI6MTY2MCwieSI6MjUyLjE1OTc1NDQyODY0NzQ2fV0=" marker-end="url(#my-svg_flowchart-v2-pointEnd)"/><path d="M1624.074,288.25L1651.211,299.5C1678.348,310.75,1732.621,333.25,1785.182,347.715C1837.742,362.179,1888.59,368.609,1914.014,371.823L1939.438,375.038" id="L_WS_BR_0" class="edge-thickness-normal edge-pattern-solid edge-thickness-normal edge-pattern-solid flowchart-link" style=";" data-edge="true" data-et="edge" data-id="L_WS_BR_0" data-points="W3sieCI6MTYyNC4wNzQwNTM2OTcxODMsInkiOjI4OC4yNX0seyJ4IjoxNzg2Ljg5NDUzMTI1LCJ5IjozNTUuNzV9LHsieCI6MTk0My40MDYyNSwieSI6Mzc1LjUzOTg1NzY1NDEyNzA1fV0=" marker-end="url(#my-svg_flowchart-v2-pointEnd)"/><path d="M1943.406,386.25L1917.321,386.25C1891.236,386.25,1839.065,386.25,1770.164,386.25C1701.263,386.25,1615.632,386.25,1535.928,386.25C1456.224,386.25,1382.448,386.25,1308.672,386.25C1234.896,386.25,1161.12,386.25,1089.69,386.25C1018.26,386.25,949.177,386.25,892.906,386.25C836.635,386.25,793.177,386.25,747.151,386.25C701.125,386.25,652.531,386.25,602.877,375.918C553.222,365.586,502.507,344.923,477.149,334.591L451.792,324.259" id="L_BR_TMUX_0" class="edge-thickness-normal edge-pattern-solid edge-thickness-normal edge-pattern-solid flowchart-link" style=";" data-edge="true" data-et="edge" data-id="L_BR_TMUX_0" data-points="W3sieCI6MTk0My40MDYyNSwieSI6Mzg2LjI1fSx7IngiOjE3ODYuODk0NTMxMjUsInkiOjM4Ni4yNX0seyJ4IjoxNTMwLCJ5IjozODYuMjV9LHsieCI6MTMwOC42NzE4NzUsInkiOjM4Ni4yNX0seyJ4IjoxMDg3LjM0Mzc1LCJ5IjozODYuMjV9LHsieCI6ODgwLjA5Mzc1LCJ5IjozODYuMjV9LHsieCI6NzQ5LjcxODc1LCJ5IjozODYuMjV9LHsieCI6NjAzLjkzNzUsInkiOjM4Ni4yNX0seyJ4Ijo0NDguMDg3MzE4NzE1NDY5NiwieSI6MzIyLjc1fV0=" marker-end="url(#my-svg_flowchart-v2-pointEnd)"/><path d="M414.414,268.75L446.001,242.583C477.588,216.417,540.763,164.083,591.391,155.876C642.019,147.668,680.101,183.587,699.142,201.546L718.183,219.505" id="L_TMUX_C_0" class="edge-thickness-normal edge-pattern-solid edge-thickness-normal edge-pattern-solid flowchart-link" style=";" data-edge="true" data-et="edge" data-id="L_TMUX_C_0" data-points="W3sieCI6NDE0LjQxMzU5NTQ0ODM2OTU2LCJ5IjoyNjguNzV9LHsieCI6NjAzLjkzNzUsInkiOjExMS43NX0seyJ4Ijo3MjEuMDkyNjEzNjM2MzYzNywieSI6MjIyLjI1fV0=" marker-end="url(#my-svg_flowchart-v2-pointEnd)"/><path d="M700.208,276.25L684.163,285C668.118,293.75,636.028,311.25,605.199,317.804C574.371,324.357,544.804,319.965,530.021,317.768L515.238,315.572" id="L_C_TMUX_0" class="edge-thickness-normal edge-pattern-solid edge-thickness-normal edge-pattern-solid flowchart-link" style=";" data-edge="true" data-et="edge" data-id="L_C_TMUX_0" data-points="W3sieCI6NzAwLjIwODEzNjc5MjQ1MjgsInkiOjI3Ni4yNX0seyJ4Ijo2MDMuOTM3NSwieSI6MzI4Ljc1fSx7IngiOjUxMS4yODEyNSwieSI6MzE0Ljk4NDA0MDMwODExNDR9XQ==" marker-end="url(#my-svg_flowchart-v2-pointEnd)"/><path d="M2112.813,376.586L2131.71,374.43C2150.607,372.274,2188.401,367.962,2239.294,365.806C2290.186,363.65,2354.178,363.65,2386.173,363.65L2418.169,363.65" id="BR-cyclic-special-1" class="edge-thickness-normal edge-pattern-solid edge-thickness-normal edge-pattern-solid flowchart-link" style=";" data-edge="true" data-et="edge" data-id="BR-cyclic-special-1" data-points="W3sieCI6MjExMi44MTI1LCJ5IjozNzYuNTg2MDU5Nzg1NjA4NTR9LHsieCI6MjIyNi4xOTUzMTI1LCJ5IjozNjMuNjQ5OTk5NjE4NTMwM30seyJ4IjoyNDE4LjE2ODc0OTk5OTI1NSwieSI6MzYzLjY0OTk5OTYxODUzMDN9XQ=="/><path d="M2418.269,363.65L2453.849,363.65C2489.429,363.65,2560.59,363.65,2631.893,367.416C2703.197,371.182,2774.644,378.713,2810.367,382.479L2846.091,386.245" id="BR-cyclic-special-mid" class="edge-thickness-normal edge-pattern-solid edge-thickness-normal edge-pattern-solid flowchart-link" style=";" data-edge="true" data-et="edge" data-id="BR-cyclic-special-mid" data-points="W3sieCI6MjQxOC4yNjg3NTAwMDA3NDUsInkiOjM2My42NDk5OTk2MTg1MzAzfSx7IngiOjI2MzEuNzUsInkiOjM2My42NDk5OTk2MTg1MzAzfSx7IngiOjI4NDYuMDkwNjI0OTk5MjU1LCJ5IjozODYuMjQ0NzI5MjQ2OTcxOTN9XQ=="/><path d="M2846.091,386.255L2810.367,390.155C2774.644,394.054,2703.197,401.852,2631.885,405.751C2560.573,409.65,2489.396,409.65,2421.803,409.65C2354.211,409.65,2290.203,409.65,2239.964,407.496C2189.725,405.342,2153.255,401.034,2135.02,398.879L2116.785,396.725" id="BR-cyclic-special-2" class="edge-thickness-normal edge-pattern-solid edge-thickness-normal edge-pattern-solid flowchart-link" style=";" data-edge="true" data-et="edge" data-id="BR-cyclic-special-2" data-points="W3sieCI6Mjg0Ni4wOTA2MjQ5OTkyNTUsInkiOjM4Ni4yNTU0NTczMjgxNzU0NX0seyJ4IjoyNjMxLjc1LCJ5Ijo0MDkuNjQ5OTk5NjE4NTMwM30seyJ4IjoyNDE4LjIxODc1LCJ5Ijo0MDkuNjQ5OTk5NjE4NTMwM30seyJ4IjoyMjI2LjE5NTMxMjUsInkiOjQwOS42NDk5OTk2MTg1MzAzfSx7IngiOjIxMTIuODEyNSwieSI6Mzk2LjI1NjAyNjI2MTY0ODh9XQ==" marker-end="url(#my-svg_flowchart-v2-pointEnd)"/><path d="M1943.406,397.136L1917.321,400.488C1891.236,403.84,1839.065,410.545,1780.661,392.762C1722.258,374.98,1657.621,332.71,1625.302,311.574L1592.984,290.439" id="L_BR_WS_0" class="edge-thickness-normal edge-pattern-solid edge-thickness-normal edge-pattern-solid flowchart-link" style=";" data-edge="true" data-et="edge" data-id="L_BR_WS_0" data-points="W3sieCI6MTk0My40MDYyNSwieSI6Mzk3LjEzNTcxODQ0OTkwMzY2fSx7IngiOjE3ODYuODk0NTMxMjUsInkiOjQxNy4yNX0seyJ4IjoxNTg5LjYzNjIzMDQ2ODc1LCJ5IjoyODguMjV9XQ==" marker-end="url(#my-svg_flowchart-v2-pointEnd)"/><path d="M1597.128,210.25L1628.756,191.875C1660.384,173.5,1723.639,136.75,1795.469,118.375C1867.299,100,1947.704,100,2020.921,100C2094.138,100,2160.167,100,2206.479,101.506C2252.792,103.013,2279.389,106.025,2292.688,107.531L2305.986,109.038" id="L_WS_FE_0" class="edge-thickness-normal edge-pattern-solid edge-thickness-normal edge-pattern-solid flowchart-link" style=";" data-edge="true" data-et="edge" data-id="L_WS_FE_0" data-points="W3sieCI6MTU5Ny4xMjgyMTkyMjExMDU2LCJ5IjoyMTAuMjV9LHsieCI6MTc4Ni44OTQ1MzEyNSwieSI6MTAwfSx7IngiOjIwMjguMTA5Mzc1LCJ5IjoxMDB9LHsieCI6MjIyNi4xOTUzMTI1LCJ5IjoxMDB9LHsieCI6MjMwOS45NjA5Mzc1LCJ5IjoxMDkuNDg3OTE2NTE0MDk3NH1d" marker-end="url(#my-svg_flowchart-v2-pointEnd)"/><path d="M802.844,249.25L815.719,249.25C828.594,249.25,854.344,249.25,879.427,249.25C904.51,249.25,928.927,249.25,941.135,249.25L953.344,249.25" id="L_C_MCP_0" class="edge-thickness-normal edge-pattern-solid edge-thickness-normal edge-pattern-solid flowchart-link" style=";" data-edge="true" data-et="edge" data-id="L_C_MCP_0" data-points="W3sieCI6ODAyLjg0Mzc1LCJ5IjoyNDkuMjV9LHsieCI6ODgwLjA5Mzc1LCJ5IjoyNDkuMjV9LHsieCI6OTU3LjM0Mzc1LCJ5IjoyNDkuMjV9XQ==" marker-end="url(#my-svg_flowchart-v2-pointEnd)"/><path d="M1217.344,249.25L1232.565,249.25C1247.786,249.25,1278.229,249.25,1308.005,249.25C1337.781,249.25,1366.891,249.25,1381.445,249.25L1396,249.25" id="L_MCP_WS_0" class="edge-thickness-normal edge-pattern-solid edge-thickness-normal edge-pattern-solid flowchart-link" style=";" data-edge="true" data-et="edge" data-id="L_MCP_WS_0" data-points="W3sieCI6MTIxNy4zNDM3NSwieSI6MjQ5LjI1fSx7IngiOjEzMDguNjcxODc1LCJ5IjoyNDkuMjV9LHsieCI6MTQwMCwieSI6MjQ5LjI1fV0=" marker-end="url(#my-svg_flowchart-v2-pointEnd)"/><path d="M1607.516,210.25L1637.412,195.208C1667.309,180.167,1727.102,150.083,1797.201,135.042C1867.299,120,1947.704,120,2020.921,120C2094.138,120,2160.167,120,2206.475,120.121C2252.784,120.242,2279.373,120.485,2292.667,120.606L2305.961,120.727" id="L_WS_FE_2" class="edge-thickness-normal edge-pattern-solid edge-thickness-normal edge-pattern-solid flowchart-link" style=";" data-edge="true" data-et="edge" data-id="L_WS_FE_2" data-points="W3sieCI6MTYwNy41MTU1NjQ1NTUxMjU4LCJ5IjoyMTAuMjV9LHsieCI6MTc4Ni44OTQ1MzEyNSwieSI6MTIwfSx7IngiOjIwMjguMTA5Mzc1LCJ5IjoxMjB9LHsieCI6MjIyNi4xOTUzMTI1LCJ5IjoxMjB9LHsieCI6MjMwOS45NjA5Mzc1LCJ5IjoxMjAuNzYzMzk1NTgxNTk0MDR9XQ==" marker-end="url(#my-svg_flowchart-v2-pointEnd)"/><path d="M1660,215.219L1681.149,209.682C1702.298,204.146,1744.596,193.073,1786.228,187.536C1827.859,182,1868.824,182,1889.307,182L1909.789,182" id="L_WS_TTS_0" class="edge-thickness-normal edge-pattern-solid edge-thickness-normal edge-pattern-solid flowchart-link" style=";" data-edge="true" data-et="edge" data-id="L_WS_TTS_0" data-points="W3sieCI6MTY2MCwieSI6MjE1LjIxODUyNDI5MTAzNjI2fSx7IngiOjE3ODYuODk0NTMxMjUsInkiOjE4Mn0seyJ4IjoxOTEzLjc4OTA2MjUsInkiOjE4Mn1d" marker-end="url(#my-svg_flowchart-v2-pointEnd)"/><path d="M2142.43,182L2156.391,182C2170.352,182,2198.273,182,2229.26,176.658C2260.247,171.316,2294.299,160.632,2311.324,155.29L2328.35,149.947" id="L_TTS_FE_0" class="edge-thickness-normal edge-pattern-solid edge-thickness-normal edge-pattern-solid flowchart-link" style=";" data-edge="true" data-et="edge" data-id="L_TTS_FE_0" data-points="W3sieCI6MjE0Mi40Mjk2ODc1LCJ5IjoxODJ9LHsieCI6MjIyNi4xOTUzMTI1LCJ5IjoxODJ9LHsieCI6MjMzMi4xNjY3NTMxMTIwMzMzLCJ5IjoxNDguNzV9XQ==" marker-end="url(#my-svg_flowchart-v2-pointEnd)"/><path d="M2460.394,151.031L2488.953,170.859C2517.513,190.687,2574.631,230.344,2620.659,251.19C2666.687,272.037,2701.624,274.074,2719.093,275.093L2736.561,276.111" id="L_FE_TS_0" class="edge-thickness-normal edge-pattern-solid edge-thickness-normal edge-pattern-solid flowchart-link" style=";" data-edge="true" data-et="edge" data-id="L_FE_TS_0" data-points="W3sieCI6MjQ1Ny4xMDgwODM4OTU0NDY3LCJ5IjoxNDguNzV9LHsieCI6MjYzMS43NSwieSI6MjcwfSx7IngiOjI3NDAuNTU0Njg3NSwieSI6Mjc2LjM0MzgzNDI2ODYzOTN9XQ==" marker-start="url(#my-svg_flowchart-v2-pointStart)" marker-end="url(#my-svg_flowchart-v2-pointEnd)"/><path d="M2736.593,297.829L2719.119,300.274C2701.646,302.719,2666.698,307.61,2613.635,310.055C2560.573,312.5,2489.396,312.5,2421.803,312.5C2354.211,312.5,2290.203,312.5,2225.185,312.5C2160.167,312.5,2094.138,312.5,2020.921,312.5C1947.704,312.5,1867.299,312.5,1806.595,307.452C1745.891,302.405,1704.888,292.309,1684.386,287.261L1663.884,282.214" id="L_TS_WS_0" class="edge-thickness-normal edge-pattern-solid edge-thickness-normal edge-pattern-solid flowchart-link" style=";" data-edge="true" data-et="edge" data-id="L_TS_WS_0" data-points="W3sieCI6Mjc0MC41NTQ2ODc1LCJ5IjoyOTcuMjc0Nzk3NzU1MjY1NjR9LHsieCI6MjYzMS43NSwieSI6MzEyLjV9LHsieCI6MjQxOC4yMTg3NSwieSI6MzEyLjV9LHsieCI6MjIyNi4xOTUzMTI1LCJ5IjozMTIuNX0seyJ4IjoyMDI4LjEwOTM3NSwieSI6MzEyLjV9LHsieCI6MTc4Ni44OTQ1MzEyNSwieSI6MzEyLjV9LHsieCI6MTY2MCwieSI6MjgxLjI1NzI5ODcxNTEyMjAzfV0=" marker-start="url(#my-svg_flowchart-v2-pointStart)" marker-end="url(#my-svg_flowchart-v2-pointEnd)"/></g><g class="edgeLabels"><g><rect class="background" style="stroke: none"/></g><g><rect class="background" style="stroke: none"/></g><g><rect class="background" style="stroke: none"/></g><g><rect class="background" style="stroke: none"/></g><g><rect class="background" style="stroke: none"/></g><g><rect class="background" style="stroke: none"/></g><g class="edgeLabel" transform="translate(177.0703125, 295.75)"><g class="label" data-id="L_U_TMUX_0" transform="translate(-50.2890625, -10.5)"><g><rect class="background" style="" x="-2" y="0" width="100.578125" height="21"/><text y="-10.1" style=""><tspan class="text-outer-tspan" x="0" y="-0.1em" dy="1.1em"><tspan font-style="normal" class="text-inner-tspan" font-weight="normal">Direct</tspan><tspan font-style="normal" class="text-inner-tspan" font-weight="normal"> prompt</tspan></tspan></text></g></g></g><g class="edgeLabel" transform="translate(1087.34375, 18.5)"><g class="label" data-id="L_U_FE_0" transform="translate(-52.546875, -10.5)"><g><rect class="background" style="" x="-2" y="0" width="105.09375" height="21"/><text y="-10.1" style=""><tspan class="text-outer-tspan" x="0" y="-0.1em" dy="1.1em"><tspan font-style="normal" class="text-inner-tspan" font-weight="normal">PTT</tspan><tspan font-style="normal" class="text-inner-tspan" font-weight="normal"> recording</tspan></tspan></text></g></g></g><g class="edgeLabel" transform="translate(1087.34375, 59.5)"><g class="label" data-id="L_U_FE_2" transform="translate(-36.51953125, -10.5)"><g><rect class="background" style="" x="-2" y="0" width="73.0390625" height="21"/><text y="-10.1" style=""><tspan class="text-outer-tspan" x="0" y="-0.1em" dy="1.1em"><tspan font-style="normal" class="text-inner-tspan" font-weight="normal">Text</tspan><tspan font-style="normal" class="text-inner-tspan" font-weight="normal"> input</tspan></tspan></text></g></g></g><g class="edgeLabel" transform="translate(2638.44324, 81.41522)"><g class="label" data-id="L_FE_ASRP_0" transform="translate(-46.4765625, -10.5)"><g><rect class="background" style="" x="-2" y="0" width="92.953125" height="21"/><text y="-10.1" style=""><tspan class="text-outer-tspan" x="0" y="-0.1em" dy="1.1em"><tspan font-style="normal" class="text-inner-tspan" font-weight="normal">Audio</tspan><tspan font-style="normal" class="text-inner-tspan" font-weight="normal"> binary</tspan></tspan></text></g></g></g><g class="edgeLabel" transform="translate(3077.44057, 75.70776)"><g class="label" data-id="L_ASRP_ASR_0" transform="translate(-98.9921875, -28.099998474121094)"><g><rect class="background" style="" x="-2" y="0" width="197.984375" height="56.19999694824219"/><text y="-10.1" style=""><tspan class="text-outer-tspan" x="0" y="-0.1em" dy="1.1em"><tspan font-style="normal" class="text-inner-tspan" font-weight="normal">JSON</tspan></tspan><tspan class="text-outer-tspan" x="0" y="1em" dy="1.1em"><tspan font-style="normal" class="text-inner-tspan" font-weight="normal">(audioBase64,mimeType,la</tspan></tspan><tspan class="text-outer-tspan" x="0" y="2.1em" dy="1.1em"><tspan font-style="normal" class="text-inner-tspan" font-weight="normal">ng)</tspan></tspan></text></g></g></g><g class="edgeLabel" transform="translate(3071.28546, 133.0021)"><g class="label" data-id="L_ASR_ASRP_0" transform="translate(-58.734375, -10.5)"><g><rect class="background" style="" x="-2" y="0" width="117.46875" height="21"/><text y="-10.1" style=""><tspan class="text-outer-tspan" x="0" y="-0.1em" dy="1.1em"><tspan font-style="normal" class="text-inner-tspan" font-weight="normal">JSON</tspan><tspan font-style="normal" class="text-inner-tspan" font-weight="normal"> transcript</tspan></tspan></text></g></g></g><g class="edgeLabel" transform="translate(2641.10252, 144.57226)"><g class="label" data-id="L_ASRP_FE_0" transform="translate(-37.54296875, -10.5)"><g><rect class="background" style="" x="-2" y="0" width="75.0859375" height="21"/><text y="-10.1" style=""><tspan class="text-outer-tspan" x="0" y="-0.1em" dy="1.1em"><tspan font-style="normal" class="text-inner-tspan" font-weight="normal">Transcript</tspan></tspan></text></g></g></g><g class="edgeLabel" transform="translate(2028.109375, 255)"><g class="label" data-id="L_FE_WS_0" transform="translate(-92.71875, -11)"><g><rect class="background" style="" x="-2" y="0" width="185.4375" height="22"/><text y="-10.1" style=""><tspan class="text-outer-tspan" x="0" y="-0.1em" dy="1.1em"><tspan font-style="normal" class="text-inner-tspan" font-weight="normal">operator_response</tspan><tspan font-style="normal" class="text-inner-tspan" font-weight="normal"> JSON</tspan></tspan></text></g></g></g><g class="edgeLabel" transform="translate(1778.34983, 352.20765)"><g class="label" data-id="L_WS_BR_0" transform="translate(-19.34375, -10.5)"><g><rect class="background" style="" x="-2" y="0" width="38.6875" height="21"/><text y="-10.1" style=""><tspan class="text-outer-tspan" x="0" y="-0.1em" dy="1.1em"><tspan font-style="normal" class="text-inner-tspan" font-weight="normal">relay</tspan></tspan></text></g></g></g><g class="edgeLabel" transform="translate(1087.34375, 386.25)"><g class="label" data-id="L_BR_TMUX_0" transform="translate(-58.0234375, -10.5)"><g><rect class="background" style="" x="-2" y="0" width="116.046875" height="21"/><text y="-10.1" style=""><tspan class="text-outer-tspan" x="0" y="-0.1em" dy="1.1em"><tspan font-style="normal" class="text-inner-tspan" font-weight="normal">tmux</tspan><tspan font-style="normal" class="text-inner-tspan" font-weight="normal"> send-keys</tspan></tspan></text></g></g></g><g class="edgeLabel"><g class="label" data-id="L_TMUX_C_0" transform="translate(0, 0)"><text y="-10.1"><tspan class="text-outer-tspan" x="0" y="-0.1em" dy="1.1em"/></text></g></g><g class="edgeLabel" transform="translate(610.95312, 324.92412)"><g class="label" data-id="L_C_TMUX_0" transform="translate(-67.65625, -10.5)"><g><rect class="background" style="" x="-2" y="0" width="135.3125" height="21"/><text y="-10.1" style=""><tspan class="text-outer-tspan" x="0" y="-0.1em" dy="1.1em"><tspan font-style="normal" class="text-inner-tspan" font-weight="normal">Work</tspan><tspan font-style="normal" class="text-inner-tspan" font-weight="normal"> logs</tspan><tspan font-style="normal" class="text-inner-tspan" font-weight="normal"> /</tspan><tspan font-style="normal" class="text-inner-tspan" font-weight="normal"> results</tspan></tspan></text></g></g></g><g class="edgeLabel"><g class="label" data-id="BR-cyclic-special-1" transform="translate(0, 0)"><text y="-10.1"><tspan class="text-outer-tspan" x="0" y="-0.1em" dy="1.1em"/></text></g></g><g class="edgeLabel" transform="translate(2631.75, 363.6499996185303)"><g class="label" data-id="BR-cyclic-special-mid" transform="translate(-80.2734375, -19.299999237060547)"><g><rect class="background" style="" x="-2" y="0" width="160.546875" height="38.599998474121094"/><text y="-10.1" style=""><tspan class="text-outer-tspan" x="0" y="-0.1em" dy="1.1em"><tspan font-style="normal" class="text-inner-tspan" font-weight="normal">capture-pane</tspan><tspan font-style="normal" class="text-inner-tspan" font-weight="normal"> (500ms,</tspan></tspan><tspan class="text-outer-tspan" x="0" y="1em" dy="1.1em"><tspan font-style="normal" class="text-inner-tspan" font-weight="normal">change-only)</tspan></tspan></text></g></g></g><g class="edgeLabel"><g class="label" data-id="BR-cyclic-special-2" transform="translate(0, 0)"><text y="-10.1"><tspan class="text-outer-tspan" x="0" y="-0.1em" dy="1.1em"/></text></g></g><g class="edgeLabel" transform="translate(1754.29824, 395.93317)"><g class="label" data-id="L_BR_WS_0" transform="translate(-101.89453125, -11)"><g><rect class="background" style="" x="-2" y="0" width="203.7890625" height="22"/><text y="-10.1" style=""><tspan class="text-outer-tspan" x="0" y="-0.1em" dy="1.1em"><tspan font-style="normal" class="text-inner-tspan" font-weight="normal">operator_terminal_snapshot</tspan></tspan></text></g></g></g><g class="edgeLabel"><g class="label" data-id="L_WS_FE_0" transform="translate(0, 0)"><text y="-10.1"><tspan class="text-outer-tspan" x="0" y="-0.1em" dy="1.1em"/></text></g></g><g class="edgeLabel" transform="translate(880.09375, 249.25)"><g class="label" data-id="L_C_MCP_0" transform="translate(-52.25, -10.5)"><g><rect class="background" style="" x="-2" y="0" width="104.5" height="21"/><text y="-10.1" style=""><tspan class="text-outer-tspan" x="0" y="-0.1em" dy="1.1em"><tspan font-style="normal" class="text-inner-tspan" font-weight="normal">stdio</tspan><tspan font-style="normal" class="text-inner-tspan" font-weight="normal"> tool</tspan><tspan font-style="normal" class="text-inner-tspan" font-weight="normal"> calls</tspan></tspan></text></g></g></g><g class="edgeLabel" transform="translate(1308.671875, 249.25)"><g class="label" data-id="L_MCP_WS_0" transform="translate(-66.328125, -10.5)"><g><rect class="background" style="" x="-2" y="0" width="132.65625" height="21"/><text y="-10.1" style=""><tspan class="text-outer-tspan" x="0" y="-0.1em" dy="1.1em"><tspan font-style="normal" class="text-inner-tspan" font-weight="normal">WebSocket</tspan><tspan font-style="normal" class="text-inner-tspan" font-weight="normal"> JSON</tspan></tspan></text></g></g></g><g class="edgeLabel"><g class="label" data-id="L_WS_FE_2" transform="translate(0, 0)"><text y="-10.1"><tspan class="text-outer-tspan" x="0" y="-0.1em" dy="1.1em"/></text></g></g><g class="edgeLabel" transform="translate(1786.89453125, 182)"><g class="label" data-id="L_WS_TTS_0" transform="translate(-44.703125, -10.5)"><g><rect class="background" style="" x="-2" y="0" width="89.40625" height="21"/><text y="-10.1" style=""><tspan class="text-outer-tspan" x="0" y="-0.1em" dy="1.1em"><tspan font-style="normal" class="text-inner-tspan" font-weight="normal">say</tspan><tspan font-style="normal" class="text-inner-tspan" font-weight="normal"> payload</tspan></tspan></text></g></g></g><g class="edgeLabel" transform="translate(2226.1953125, 182)"><g class="label" data-id="L_TTS_FE_0" transform="translate(-58.765625, -10.5)"><g><rect class="background" style="" x="-2" y="0" width="117.53125" height="21"/><text y="-10.1" style=""><tspan class="text-outer-tspan" x="0" y="-0.1em" dy="1.1em"><tspan font-style="normal" class="text-inner-tspan" font-weight="normal">audio</tspan><tspan font-style="normal" class="text-inner-tspan" font-weight="normal"> +</tspan><tspan font-style="normal" class="text-inner-tspan" font-weight="normal"> tts</tspan><tspan font-style="normal" class="text-inner-tspan" font-weight="normal"> state</tspan></tspan></text></g></g></g><g class="edgeLabel" transform="translate(2631.75, 270)"><g class="label" data-id="L_FE_TS_0" transform="translate(-43.3359375, -10.5)"><g><rect class="background" style="" x="-2" y="0" width="86.671875" height="21"/><text y="-10.1" style=""><tspan class="text-outer-tspan" x="0" y="-0.1em" dy="1.1em"><tspan font-style="normal" class="text-inner-tspan" font-weight="normal">HTTPS/WS</tspan></tspan></text></g></g></g><g class="edgeLabel"><g class="label" data-id="L_TS_WS_0" transform="translate(0, 0)"><text y="-10.1"><tspan class="text-outer-tspan" x="0" y="-0.1em" dy="1.1em"/></text></g></g></g><g class="nodes"><g class="node default" id="flowchart-U-0" transform="translate(54.890625, 74.25)"><rect class="basic label-container" style="" x="-46.890625" y="-27" width="93.78125" height="54"/><g class="label" style="" transform="translate(-16.890625, -12)"><rect/><foreignObject width="33.78125" height="24"><div xmlns="http://www.w3.org/1999/xhtml" style="display: table-cell; white-space: nowrap; line-height: 1.5; max-width: 200px; text-align: center;"><span class="nodeLabel"><p>User</p></span></div></foreignObject></g></g><g class="node default" id="flowchart-TMUX-1" transform="translate(381.8203125, 295.75)"><rect class="basic label-container" style="" x="-129.4609375" y="-27" width="258.921875" height="54"/><g class="label" style="" transform="translate(-99.4609375, -12)"><rect/><foreignObject width="198.921875" height="24"><div xmlns="http://www.w3.org/1999/xhtml" style="display: table-cell; white-space: nowrap; line-height: 1.5; max-width: 200px; text-align: center;"><span class="nodeLabel"><p>tmux Terminal\nCodex pane</p></span></div></foreignObject></g></g><g class="node default" id="flowchart-C-2" transform="translate(749.71875, 249.25)"><rect class="basic label-container" style="" x="-53.125" y="-27" width="106.25" height="54"/><g class="label" style="" transform="translate(-23.125, -12)"><rect/><foreignObject width="46.25" height="24"><div xmlns="http://www.w3.org/1999/xhtml" style="display: table-cell; white-space: nowrap; line-height: 1.5; max-width: 200px; text-align: center;"><span class="nodeLabel"><p>Codex</p></span></div></foreignObject></g></g><g class="node default" id="flowchart-MCP-3" transform="translate(1087.34375, 249.25)"><rect class="basic label-container" style="" x="-130" y="-39" width="260" height="78"/><g class="label" style="" transform="translate(-100, -24)"><rect/><foreignObject width="200" height="48"><div xmlns="http://www.w3.org/1999/xhtml" style="display: table; white-space: break-spaces; line-height: 1.5; max-width: 200px; text-align: center; width: 200px;"><span class="nodeLabel"><p>MCP Server\nface_event / face_say / face_ping</p></span></div></foreignObject></g></g><g class="node default" id="flowchart-WS-4" transform="translate(1530, 249.25)"><rect class="basic label-container" style="" x="-130" y="-39" width="260" height="78"/><g class="label" style="" transform="translate(-100, -24)"><rect/><foreignObject width="200" height="48"><div xmlns="http://www.w3.org/1999/xhtml" style="display: table; white-space: break-spaces; line-height: 1.5; max-width: 200px; text-align: center; width: 200px;"><span class="nodeLabel"><p>face-app\nWebSocket + HTTP :8765</p></span></div></foreignObject></g></g><g class="node default" id="flowchart-FE-5" transform="translate(2418.21875, 121.75)"><rect class="basic label-container" style="" x="-108.2578125" y="-27" width="216.515625" height="54"/><g class="label" style="" transform="translate(-78.2578125, -12)"><rect/><foreignObject width="156.515625" height="24"><div xmlns="http://www.w3.org/1999/xhtml" style="display: table-cell; white-space: nowrap; line-height: 1.5; max-width: 200px; text-align: center;"><span class="nodeLabel"><p>Frontend UI\nBrowser</p></span></div></foreignObject></g></g><g class="node default" id="flowchart-BR-6" transform="translate(2028.109375, 386.25)"><rect class="basic label-container" style="" x="-84.703125" y="-27" width="169.40625" height="54"/><g class="label" style="" transform="translate(-54.703125, -12)"><rect/><foreignObject width="109.40625" height="24"><div xmlns="http://www.w3.org/1999/xhtml" style="display: table-cell; white-space: nowrap; line-height: 1.5; max-width: 200px; text-align: center;"><span class="nodeLabel"><p>operator-bridge</p></span></div></foreignObject></g></g><g class="node default" id="flowchart-ASRP-7" transform="translate(2846.140625, 101.25)"><polygon points="-19.5,0 179.234375,0 198.734375,-39 0,-39" class="label-container" transform="translate(-89.6171875,19.5)"/><g class="label" style="" transform="translate(-82.1171875, -12)"><rect/><foreignObject width="164.234375" height="24"><div xmlns="http://www.w3.org/1999/xhtml" style="display: table-cell; white-space: nowrap; line-height: 1.5; max-width: 200px; text-align: center;"><span class="nodeLabel"><p>POST /api/operator/asr</p></span></div></foreignObject></g></g><g class="node default" id="flowchart-ASR-8" transform="translate(3333.2421875, 101.25)"><rect class="basic label-container" style="" x="-130" y="-39" width="260" height="78"/><g class="label" style="" transform="translate(-100, -24)"><rect/><foreignObject width="200" height="48"><div xmlns="http://www.w3.org/1999/xhtml" style="display: table; white-space: break-spaces; line-height: 1.5; max-width: 200px; text-align: center; width: 200px;"><span class="nodeLabel"><p>asr-worker\nParakeet ASR\nJA/EN</p></span></div></foreignObject></g></g><g class="node default" id="flowchart-TTS-9" transform="translate(2028.109375, 182)"><rect class="basic label-container" style="" x="-114.3203125" y="-27" width="228.640625" height="54"/><g class="label" style="" transform="translate(-84.3203125, -12)"><rect/><foreignObject width="168.640625" height="24"><div xmlns="http://www.w3.org/1999/xhtml" style="display: table-cell; white-space: nowrap; line-height: 1.5; max-width: 200px; text-align: center;"><span class="nodeLabel"><p>tts-worker\nKokoro TTS</p></span></div></foreignObject></g></g><g class="node default" id="flowchart-TS-10" transform="translate(2846.140625, 282.5)"><rect class="basic label-container" style="" x="-105.5859375" y="-27" width="211.171875" height="54"/><g class="label" style="" transform="translate(-75.5859375, -12)"><rect/><foreignObject width="151.171875" height="24"><div xmlns="http://www.w3.org/1999/xhtml" style="display: table-cell; white-space: nowrap; line-height: 1.5; max-width: 200px; text-align: center;"><span class="nodeLabel"><p>Tailscale VPN / serve</p></span></div></foreignObject></g></g><g class="label edgeLabel" id="BR---BR---1" transform="translate(2418.21875, 363.6499996185303)"><rect width="0.1" height="0.1"/><g class="label" style="" transform="translate(0, 0)"><rect/><foreignObject width="0" height="0"><div xmlns="http://www.w3.org/1999/xhtml" style="display: table-cell; white-space: nowrap; line-height: 1.5; max-width: 10px; text-align: center;"><span class="nodeLabel"></span></div></foreignObject></g></g><g class="label edgeLabel" id="BR---BR---2" transform="translate(2846.140625, 386.25)"><rect width="0.1" height="0.1"/><g class="label" style="" transform="translate(0, 0)"><rect/><foreignObject width="0" height="0"><div xmlns="http://www.w3.org/1999/xhtml" style="display: table-cell; white-space: nowrap; line-height: 1.5; max-width: 10px; text-align: center;"><span class="nodeLabel"></span></div></foreignObject></g></g></g></g></g></svg>