<svg id="my-svg" width="100%" xmlns="http://www.w3.org/2000/svg" xmlns:xlink="http://www.w3.org/1999/xlink" class="flowchart" style="max-width: 3516.63px; background-color: white;" viewBox="0 0 3516.6328125 421.25" role="graphics-document document" aria-roledescription="flowchart-v2"><style>#my-svg{font-family:"trebuchet ms",verdana,arial,sans-serif;font-size:16px;fill:#333;}@keyframes edge-animation-frame{from{stroke-dashoffset:0;}}@keyframes dash{to{stroke-dashoffset:0;}}#my-svg .edge-animation-slow{stroke-dasharray:9,5!important;stroke-dashoffset:900;animation:dash 50s linear infinite;stroke-linecap:round;}#my-svg .edge-animation-fast{stroke-dasharray:9,5!important;stroke-dashoffset:900;animation:dash 20s linear infinite;stroke-linecap:round;}#my-svg .error-icon{fill:#552222;}#my-svg .error-text{fill:#552222;stroke:#552222;}#my-svg .edge-thickness-normal{stroke-width:1px;}#my-svg .edge-thickness-thick{stroke-width:3.5px;}#my-svg .edge-pattern-solid{stroke-dasharray:0;}#my-svg .edge-thickness-invisible{stroke-width:0;fill:none;}#my-svg .edge-pattern-dashed{stroke-dasharray:3;}#my-svg .edge-pattern-dotted{stroke-dasharray:2;}#my-svg .marker{fill:#333333;stroke:#333333;}#my-svg .marker.cross{stroke:#333333;}#my-svg svg{font-family:"trebuchet ms",verdana,arial,sans-serif;font-size:16px;}#my-svg p{margin:0;}#my-svg .label{font-family:"trebuchet ms",verdana,arial,sans-serif;color:#333;}#my-svg .cluster-label text{fill:#333;}#my-svg .cluster-label span{color:#333;}#my-svg .cluster-label span p{background-color:transparent;}#my-svg .label text,#my-svg span{fill:#333;color:#333;}#my-svg .node rect,#my-svg .node circle,#my-svg .node ellipse,#my-svg .node polygon,#my-svg .node path{fill:#ECECFF;stroke:#9370DB;stroke-width:1px;}#my-svg .rough-node .label text,#my-svg .node .label text,#my-svg .image-shape .label,#my-svg .icon-shape .label{text-anchor:middle;}#my-svg .node .katex path{fill:#000;stroke:#000;stroke-width:1px;}#my-svg .rough-node .label,#my-svg .node .label,#my-svg .image-shape .label,#my-svg .icon-shape .label{text-align:center;}#my-svg .node.clickable{cursor:pointer;}#my-svg .root .anchor path{fill:#333333!important;stroke-width:0;stroke:#333333;}#my-svg .arrowheadPath{fill:#333333;}#my-svg .edgePath .path{stroke:#333333;stroke-width:2.0px;}#my-svg .flowchart-link{stroke:#333333;fill:none;}#my-svg .edgeLabel{background-color:rgba(232,232,232, 0.8);text-align:center;}#my-svg .edgeLabel p{background-color:rgba(232,232,232, 0.8);}#my-svg .edgeLabel rect{opacity:0.5;background-color:rgba(232,232,232, 0.8);fill:rgba(232,232,232, 0.8);}#my-svg .labelBkg{background-color:rgba(232, 232, 232, 0.5);}#my-svg .cluster rect{fill:#ffffde;stroke:#aaaa33;stroke-width:1px;}#my-svg .cluster text{fill:#333;}#my-svg .cluster span{color:#333;}#my-svg div.mermaidTooltip{position:absolute;text-align:center;max-width:200px;padding:2px;font-family:"trebuchet ms",verdana,arial,sans-serif;font-size:12px;background:hsl(80, 100%, 96.2745098039%);border:1px solid #aaaa33;border-radius:2px;pointer-events:none;z-index:100;}#my-svg .flowchartTitleText{text-anchor:middle;font-size:18px;fill:#333;}#my-svg rect.text{fill:none;stroke-width:0;}#my-svg .icon-shape,#my-svg .image-shape{background-color:rgba(232,232,232, 0.8);text-align:center;}#my-svg .icon-shape p,#my-svg .image-shape p{background-color:rgba(232,232,232, 0.8);padding:2px;}#my-svg .icon-shape rect,#my-svg .image-shape rect{opacity:0.5;background-color:rgba(232,232,232, 0.8);fill:rgba(232,232,232, 0.8);}#my-svg .label-icon{display:inline-block;height:1em;overflow:visible;vertical-align:-0.125em;}#my-svg .node .label-icon path{fill:currentColor;stroke:revert;stroke-width:revert;}#my-svg :root{--mermaid-font-family:"trebuchet ms",verdana,arial,sans-serif;}</style><g><marker id="my-svg_flowchart-v2-pointEnd" class="marker flowchart-v2" viewBox="0 0 10 10" refX="5" refY="5" markerUnits="userSpaceOnUse" markerWidth="8" markerHeight="8" orient="auto"><path d="M 0 0 L 10 5 L 0 10 z" class="arrowMarkerPath" style="stroke-width: 1; stroke-dasharray: 1, 0;"/></marker><marker id="my-svg_flowchart-v2-pointStart" class="marker flowchart-v2" viewBox="0 0 10 10" refX="4.5" refY="5" markerUnits="userSpaceOnUse" markerWidth="8" markerHeight="8" orient="auto"><path d="M 0 5 L 10 10 L 10 0 z" class="arrowMarkerPath" style="stroke-width: 1; stroke-dasharray: 1, 0;"/></marker><marker id="my-svg_flowchart-v2-circleEnd" class="marker flowchart-v2" viewBox="0 0 10 10" refX="11" refY="5" markerUnits="userSpaceOnUse" markerWidth="11" markerHeight="11" orient="auto"><circle cx="5" cy="5" r="5" class="arrowMarkerPath" style="stroke-width: 1; stroke-dasharray: 1, 0;"/></marker><marker id="my-svg_flowchart-v2-circleStart" class="marker flowchart-v2" viewBox="0 0 10 10" refX="-1" refY="5" markerUnits="userSpaceOnUse" markerWidth="11" markerHeight="11" orient="auto"><circle cx="5" cy="5" r="5" class="arrowMarkerPath" style="stroke-width: 1; stroke-dasharray: 1, 0;"/></marker><marker id="my-svg_flowchart-v2-crossEnd" class="marker cross flowchart-v2" viewBox="0 0 11 11" refX="12" refY="5.2" markerUnits="userSpaceOnUse" markerWidth="11" markerHeight="11" orient="auto"><path d="M 1,1 l 9,9 M 10,1 l -9,9" class="arrowMarkerPath" style="stroke-width: 2; stroke-dasharray: 1, 0;"/></marker><marker id="my-svg_flowchart-v2-crossStart" class="marker cross flowchart-v2" viewBox="0 0 11 11" refX="-1" refY="5.2" markerUnits="userSpaceOnUse" markerWidth="11" markerHeight="11" orient="auto"><path d="M 1,1 l 9,9 M 10,1 l -9,9" class="arrowMarkerPath" style="stroke-width: 2; stroke-dasharray: 1, 0;"/></marker><g class="root"><g class="clusters"/><g class="edgePaths"><path d="M69.784,101.25L87.665,133.667C105.546,166.083,141.308,230.917,171.071,263.333C200.833,295.75,224.596,295.75,236.478,295.75L248.359,295.75" id="L_U_TMUX_0" class="edge-thickness-normal edge-pattern-solid edge-thickness-normal edge-pattern-solid flowchart-link" style=";" data-edge="true" data-et="edge" data-id="L_U_TMUX_0" data-points="W3sieCI6NjkuNzgzODYwMDQ1MTQ2NzIsInkiOjEwMS4yNX0seyJ4IjoxNzcuMDcwMzEyNSwieSI6Mjk1Ljc1fSx7IngiOjI1Mi4zNTkzNzUsInkiOjI5NS43NX1d" marker-end="url(#my-svg_flowchart-v2-pointEnd)"/><path d="M101.781,52.854L114.329,47.128C126.878,41.403,151.974,29.951,198.277,24.226C244.581,18.5,312.091,18.5,382.496,18.5C452.901,18.5,526.201,18.5,591.299,18.5C656.398,18.5,713.297,18.5,767.628,18.5C821.958,18.5,873.721,18.5,934.145,18.5C994.568,18.5,1063.651,18.5,1135.081,18.5C1206.51,18.5,1280.286,18.5,1354.063,18.5C1427.839,18.5,1501.615,18.5,1581.318,18.5C1661.022,18.5,1746.654,18.5,1829.672,18.5C1912.69,18.5,1993.095,18.5,2066.312,18.5C2139.529,18.5,2205.557,18.5,2261.619,30.893C2317.681,43.285,2363.777,68.07,2386.824,80.463L2409.872,92.856" id="L_U_FE_0" class="edge-thickness-normal edge-pattern-solid edge-thickness-normal edge-pattern-solid flowchart-link" style=";" data-edge="true" data-et="edge" data-id="L_U_FE_0" data-points="W3sieCI6MTAxLjc4MTI1LCJ5Ijo1Mi44NTQwMzQ3ODQ4MzI3OX0seyJ4IjoxNzcuMDcwMzEyNSwieSI6MTguNX0seyJ4IjozNzkuNjAxNTYyNSwieSI6MTguNX0seyJ4Ijo1OTkuNSwieSI6MTguNX0seyJ4Ijo3NzAuMTk1MzEyNSwieSI6MTguNX0seyJ4Ijo5MjUuNDg0Mzc1LCJ5IjoxOC41fSx7IngiOjExMzIuNzM0Mzc1LCJ5IjoxOC41fSx7IngiOjEzNTQuMDYyNSwieSI6MTguNX0seyJ4IjoxNTc1LjM5MDYyNSwieSI6MTguNX0seyJ4IjoxODMyLjI4NTE1NjI1LCJ5IjoxOC41fSx7IngiOjIwNzMuNSwieSI6MTguNX0seyJ4IjoyMjcxLjU4NTkzNzUsInkiOjE4LjV9LHsieCI6MjQxMy4zOTUwMTM2MTk4NTQ2LCJ5Ijo5NC43NX1d" marker-end="url(#my-svg_flowchart-v2-pointEnd)"/><path d="M101.781,68.589L114.329,67.074C126.878,65.559,151.974,62.53,198.277,61.015C244.581,59.5,312.091,59.5,382.496,59.5C452.901,59.5,526.201,59.5,591.299,59.5C656.398,59.5,713.297,59.5,767.628,59.5C821.958,59.5,873.721,59.5,934.145,59.5C994.568,59.5,1063.651,59.5,1135.081,59.5C1206.51,59.5,1280.286,59.5,1354.063,59.5C1427.839,59.5,1501.615,59.5,1581.318,59.5C1661.022,59.5,1746.654,59.5,1829.672,59.5C1912.69,59.5,1993.095,59.5,2066.312,59.5C2139.529,59.5,2205.557,59.5,2256.06,65.169C2306.563,70.839,2341.54,82.178,2359.029,87.847L2376.517,93.516" id="L_U_FE_2" class="edge-thickness-normal edge-pattern-solid edge-thickness-normal edge-pattern-solid flowchart-link" style=";" data-edge="true" data-et="edge" data-id="L_U_FE_2" data-points="W3sieCI6MTAxLjc4MTI1LCJ5Ijo2OC41ODkxODQwOTEwNTQ0Mn0seyJ4IjoxNzcuMDcwMzEyNSwieSI6NTkuNX0seyJ4IjozNzkuNjAxNTYyNSwieSI6NTkuNX0seyJ4Ijo1OTkuNSwieSI6NTkuNX0seyJ4Ijo3NzAuMTk1MzEyNSwieSI6NTkuNX0seyJ4Ijo5MjUuNDg0Mzc1LCJ5Ijo1OS41fSx7IngiOjExMzIuNzM0Mzc1LCJ5Ijo1OS41fSx7IngiOjEzNTQuMDYyNSwieSI6NTkuNX0seyJ4IjoxNTc1LjM5MDYyNSwieSI6NTkuNX0seyJ4IjoxODMyLjI4NTE1NjI1LCJ5Ijo1OS41fSx7IngiOjIwNzMuNSwieSI6NTkuNX0seyJ4IjoyMjcxLjU4NTkzNzUsInkiOjU5LjV9LHsieCI6MjM4MC4zMjIxMDA5MDM2MTQyLCJ5Ijo5NC43NX1d" marker-end="url(#my-svg_flowchart-v2-pointEnd)"/><path d="M2571.867,100.963L2589.413,97.595C2606.958,94.226,2642.049,87.488,2678.941,86.042C2715.833,84.595,2754.525,88.441,2773.871,90.364L2793.218,92.286" id="L_FE_ASRP_0" class="edge-thickness-normal edge-pattern-solid edge-thickness-normal edge-pattern-solid flowchart-link" style=";" data-edge="true" data-et="edge" data-id="L_FE_ASRP_0" data-points="W3sieCI6MjU3MS44NjcxODc1LCJ5IjoxMDAuOTYzNDg2MDIzNzA4NDd9LHsieCI6MjY3Ny4xNDA2MjUsInkiOjgwLjc1fSx7IngiOjI3OTcuMTk4MDMxNjg2ODk2LCJ5Ijo5Mi42ODIwNjE2MjYyMDg1Mn1d" marker-end="url(#my-svg_flowchart-v2-pointEnd)"/><path d="M2997.207,90.132L3018.446,87.693C3039.685,85.255,3082.163,80.377,3123.404,79.966C3164.645,79.556,3204.649,83.611,3224.651,85.639L3244.653,87.667" id="L_ASRP_ASR_0" class="edge-thickness-normal edge-pattern-solid edge-thickness-normal edge-pattern-solid flowchart-link" style=";" data-edge="true" data-et="edge" data-id="L_ASRP_ASR_0" data-points="W3sieCI6Mjk5Ny4yMDc0ODc2OTUxMDQ2LCJ5Ijo5MC4xMzE4OTk2MDk3OTA3MX0seyJ4IjozMTI0LjY0MDYyNSwieSI6NzUuNX0seyJ4IjozMjQ4LjYzMjgxMjUsInkiOjg4LjA3MDQ2MDc2NzEyNDk3fV0=" marker-end="url(#my-svg_flowchart-v2-pointEnd)"/><path d="M3248.633,118.064L3227.967,120.736C3207.302,123.409,3165.971,128.755,3122.669,128.307C3079.367,127.859,3034.094,121.618,3011.457,118.498L2988.82,115.377" id="L_ASR_ASRP_0" class="edge-thickness-normal edge-pattern-solid edge-thickness-normal edge-pattern-solid flowchart-link" style=";" data-edge="true" data-et="edge" data-id="L_ASR_ASRP_0" data-points="W3sieCI6MzI0OC42MzI4MTI1LCJ5IjoxMTguMDYzNTA4NDkyNzk4NTl9LHsieCI6MzEyNC42NDA2MjUsInkiOjEzNC4wOTk5OTg0NzQxMjExfSx7IngiOjI5ODQuODU3ODMxNjg2MjA2LCJ5IjoxMTQuODMxMjExNjI3NTg3ODl9XQ==" marker-end="url(#my-svg_flowchart-v2-pointEnd)"/><path d="M2799.642,121.25L2779.225,125.458C2758.808,129.667,2717.974,138.083,2680.674,140.335C2643.374,142.586,2609.607,138.672,2592.724,136.715L2575.841,134.759" id="L_ASRP_FE_0" class="edge-thickness-normal edge-pattern-solid edge-thickness-normal edge-pattern-solid flowchart-link" style=";" data-edge="true" data-et="edge" data-id="L_ASRP_FE_0" data-points="W3sieCI6Mjc5OS42NDE5MTk4ODk1MDMsInkiOjEyMS4yNX0seyJ4IjoyNjc3LjE0MDYyNSwieSI6MTQ2LjV9LHsieCI6MjU3MS44NjcxODc1LCJ5IjoxMzQuMjk3OTU2NjA3NjM5NH1d" marker-end="url(#my-svg_flowchart-v2-pointEnd)"/><path d="M2424.7,148.75L2399.181,166.458C2373.662,184.167,2322.624,219.583,2264.091,237.292C2205.557,255,2139.529,255,2066.312,255C1993.095,255,1912.69,255,1852.005,254.542C1791.32,254.083,1750.355,253.166,1729.872,252.708L1709.39,252.249" id="L_FE_WS_0" class="edge-thickness-normal edge-pattern-solid edge-thickness-normal edge-pattern-solid flowchart-link" style=";" data-edge="true" data-et="edge" data-id="L_FE_WS_0" data-points="W3sieCI6MjQyNC43MDAzMTA3NDEwODgzLCJ5IjoxNDguNzV9LHsieCI6MjI3MS41ODU5Mzc1LCJ5IjoyNTV9LHsieCI6MjA3My41LCJ5IjoyNTV9LHsieCI6MTgzMi4yODUxNTYyNSwieSI6MjU1fSx7IngiOjE3MDUuMzkwNjI1LCJ5IjoyNTIuMTU5NzU0NDI4NjQ3NDZ9XQ==" marker-end="url(#my-svg_flowchart-v2-pointEnd)"/><path d="M1669.465,288.25L1696.601,299.5C1723.738,310.75,1778.012,333.25,1830.572,347.715C1883.133,362.179,1933.981,368.609,1959.405,371.823L1984.828,375.038" id="L_WS_BR_0" class="edge-thickness-normal edge-pattern-solid edge-thickness-normal edge-pattern-solid flowchart-link" style=";" data-edge="true" data-et="edge" data-id="L_WS_BR_0" data-points="W3sieCI6MTY2OS40NjQ2Nzg2OTcxODMsInkiOjI4OC4yNX0seyJ4IjoxODMyLjI4NTE1NjI1LCJ5IjozNTUuNzV9LHsieCI6MTk4OC43OTY4NzUsInkiOjM3NS41Mzk4NTc2NTQxMjcwNX1d" marker-end="url(#my-svg_flowchart-v2-pointEnd)"/><path d="M1988.797,386.25L1962.712,386.25C1936.626,386.25,1884.456,386.25,1815.555,386.25C1746.654,386.25,1661.022,386.25,1581.318,386.25C1501.615,386.25,1427.839,386.25,1354.063,386.25C1280.286,386.25,1206.51,386.25,1135.081,386.25C1063.651,386.25,994.568,386.25,934.145,386.25C873.721,386.25,821.958,386.25,767.628,386.25C713.297,386.25,656.398,386.25,602.85,375.92C549.302,365.591,499.104,344.932,474.005,334.602L448.906,324.272" id="L_BR_TMUX_0" class="edge-thickness-normal edge-pattern-solid edge-thickness-normal edge-pattern-solid flowchart-link" style=";" data-edge="true" data-et="edge" data-id="L_BR_TMUX_0" data-points="W3sieCI6MTk4OC43OTY4NzUsInkiOjM4Ni4yNX0seyJ4IjoxODMyLjI4NTE1NjI1LCJ5IjozODYuMjV9LHsieCI6MTU3NS4zOTA2MjUsInkiOjM4Ni4yNX0seyJ4IjoxMzU0LjA2MjUsInkiOjM4Ni4yNX0seyJ4IjoxMTMyLjczNDM3NSwieSI6Mzg2LjI1fSx7IngiOjkyNS40ODQzNzUsInkiOjM4Ni4yNX0seyJ4Ijo3NzAuMTk1MzEyNSwieSI6Mzg2LjI1fSx7IngiOjU5OS41LCJ5IjozODYuMjV9LHsieCI6NDQ1LjIwNjYyMTIwMTY1NzQ3LCJ5IjozMjIuNzV9XQ==" marker-end="url(#my-svg_flowchart-v2-pointEnd)"/><path d="M411.869,268.75L443.141,242.583C474.413,216.417,536.956,164.083,590.572,155.915C644.187,147.747,688.875,183.744,711.218,201.742L733.562,219.741" id="L_TMUX_C_0" class="edge-thickness-normal edge-pattern-solid edge-thickness-normal edge-pattern-solid flowchart-link" style=";" data-edge="true" data-et="edge" data-id="L_TMUX_C_0" data-points="W3sieCI6NDExLjg2OTI2ODAwMjcxNzQsInkiOjI2OC43NX0seyJ4Ijo1OTkuNSwieSI6MTExLjc1fSx7IngiOjczNi42NzY5NjAyMjcyNzI3LCJ5IjoyMjIuMjV9XQ==" marker-end="url(#my-svg_flowchart-v2-pointEnd)"/><path d="M712.223,276.25L693.436,285C674.649,293.75,637.074,311.25,603.504,317.781C569.933,324.313,540.366,319.876,525.583,317.657L510.799,315.439" id="L_C_TMUX_0" class="edge-thickness-normal edge-pattern-solid edge-thickness-normal edge-pattern-solid flowchart-link" style=";" data-edge="true" data-et="edge" data-id="L_C_TMUX_0" data-points="W3sieCI6NzEyLjIyMzMxOTU3NTQ3MTcsInkiOjI3Ni4yNX0seyJ4Ijo1OTkuNSwieSI6MzI4Ljc1fSx7IngiOjUwNi44NDM3NSwieSI6MzE0Ljg0NTE0MzM1NDUzMTU2fV0=" marker-end="url(#my-svg_flowchart-v2-pointEnd)"/><path d="M2158.203,376.586L2177.1,374.43C2195.997,372.274,2233.792,367.962,2284.684,365.806C2335.577,363.65,2399.568,363.65,2431.564,363.65L2463.559,363.65" id="BR-cyclic-special-1" class="edge-thickness-normal edge-pattern-solid edge-thickness-normal edge-pattern-solid flowchart-link" style=";" data-edge="true" data-et="edge" data-id="BR-cyclic-special-1" data-points="W3sieCI6MjE1OC4yMDMxMjUsInkiOjM3Ni41ODYwNTk3ODU2MDg1NH0seyJ4IjoyMjcxLjU4NTkzNzUsInkiOjM2My42NDk5OTk2MTg1MzAzfSx7IngiOjI0NjMuNTU5Mzc0OTk5MjU1LCJ5IjozNjMuNjQ5OTk5NjE4NTMwM31d"/><path d="M2463.659,363.65L2499.24,363.65C2534.82,363.65,2605.98,363.65,2677.284,367.416C2748.587,371.182,2820.034,378.713,2855.758,382.479L2891.481,386.245" id="BR-cyclic-special-mid" class="edge-thickness-normal edge-pattern-solid edge-thickness-normal edge-pattern-solid flowchart-link" style=";" data-edge="true" data-et="edge" data-id="BR-cyclic-special-mid" data-points="W3sieCI6MjQ2My42NTkzNzUwMDA3NDUsInkiOjM2My42NDk5OTk2MTg1MzAzfSx7IngiOjI2NzcuMTQwNjI1LCJ5IjozNjMuNjQ5OTk5NjE4NTMwM30seyJ4IjoyODkxLjQ4MTI0OTk5OTI1NSwieSI6Mzg2LjI0NDcyOTI0Njk3MTkzfV0="/><path d="M2891.481,386.255L2855.758,390.155C2820.034,394.054,2748.587,401.852,2677.276,405.751C2605.964,409.65,2534.786,409.65,2467.194,409.65C2399.602,409.65,2335.594,409.65,2285.355,407.496C2235.116,405.342,2198.646,401.034,2180.411,398.879L2162.176,396.725" id="BR-cyclic-special-2" class="edge-thickness-normal edge-pattern-solid edge-thickness-normal edge-pattern-solid flowchart-link" style=";" data-edge="true" data-et="edge" data-id="BR-cyclic-special-2" data-points="W3sieCI6Mjg5MS40ODEyNDk5OTkyNTUsInkiOjM4Ni4yNTU0NTczMjgxNzU0NX0seyJ4IjoyNjc3LjE0MDYyNSwieSI6NDA5LjY0OTk5OTYxODUzMDN9LHsieCI6MjQ2My42MDkzNzUsInkiOjQwOS42NDk5OTk2MTg1MzAzfSx7IngiOjIyNzEuNTg1OTM3NSwieSI6NDA5LjY0OTk5OTYxODUzMDN9LHsieCI6MjE1OC4yMDMxMjUsInkiOjM5Ni4yNTYwMjYyNjE2NDg4fV0=" marker-end="url(#my-svg_flowchart-v2-pointEnd)"/><path d="M1988.797,397.136L1962.712,400.488C1936.626,403.84,1884.456,410.545,1826.052,392.762C1767.648,374.98,1703.011,332.71,1670.693,311.574L1638.375,290.439" id="L_BR_WS_0" class="edge-thickness-normal edge-pattern-solid edge-thickness-normal edge-pattern-solid flowchart-link" style=";" data-edge="true" data-et="edge" data-id="L_BR_WS_0" data-points="W3sieCI6MTk4OC43OTY4NzUsInkiOjM5Ny4xMzU3MTg0NDk5MDM2Nn0seyJ4IjoxODMyLjI4NTE1NjI1LCJ5Ijo0MTcuMjV9LHsieCI6MTYzNS4wMjY4NTU0Njg3NSwieSI6Mjg4LjI1fV0=" marker-end="url(#my-svg_flowchart-v2-pointEnd)"/><path d="M1642.519,210.25L1674.147,191.875C1705.774,173.5,1769.03,136.75,1840.86,118.375C1912.69,100,1993.095,100,2066.312,100C2139.529,100,2205.557,100,2251.87,101.506C2298.183,103.013,2324.78,106.025,2338.078,107.531L2351.377,109.038" id="L_WS_FE_0" class="edge-thickness-normal edge-pattern-solid edge-thickness-normal edge-pattern-solid flowchart-link" style=";" data-edge="true" data-et="edge" data-id="L_WS_FE_0" data-points="W3sieCI6MTY0Mi41MTg4NDQyMjExMDU2LCJ5IjoyMTAuMjV9LHsieCI6MTgzMi4yODUxNTYyNSwieSI6MTAwfSx7IngiOjIwNzMuNSwieSI6MTAwfSx7IngiOjIyNzEuNTg1OTM3NSwieSI6MTAwfSx7IngiOjIzNTUuMzUxNTYyNSwieSI6MTA5LjQ4NzkxNjUxNDA5NzR9XQ==" marker-end="url(#my-svg_flowchart-v2-pointEnd)"/><path d="M848.234,249.25L861.109,249.25C873.984,249.25,899.734,249.25,924.818,249.25C949.901,249.25,974.318,249.25,986.526,249.25L998.734,249.25" id="L_C_MCP_0" class="edge-thickness-normal edge-pattern-solid edge-thickness-normal edge-pattern-solid flowchart-link" style=";" data-edge="true" data-et="edge" data-id="L_C_MCP_0" data-points="W3sieCI6ODQ4LjIzNDM3NSwieSI6MjQ5LjI1fSx7IngiOjkyNS40ODQzNzUsInkiOjI0OS4yNX0seyJ4IjoxMDAyLjczNDM3NSwieSI6MjQ5LjI1fV0=" marker-end="url(#my-svg_flowchart-v2-pointEnd)"/><path d="M1262.734,249.25L1277.956,249.25C1293.177,249.25,1323.62,249.25,1353.396,249.25C1383.172,249.25,1412.281,249.25,1426.836,249.25L1441.391,249.25" id="L_MCP_WS_0" class="edge-thickness-normal edge-pattern-solid edge-thickness-normal edge-pattern-solid flowchart-link" style=";" data-edge="true" data-et="edge" data-id="L_MCP_WS_0" data-points="W3sieCI6MTI2Mi43MzQzNzUsInkiOjI0OS4yNX0seyJ4IjoxMzU0LjA2MjUsInkiOjI0OS4yNX0seyJ4IjoxNDQ1LjM5MDYyNSwieSI6MjQ5LjI1fV0=" marker-end="url(#my-svg_flowchart-v2-pointEnd)"/><path d="M1652.906,210.25L1682.803,195.208C1712.699,180.167,1772.492,150.083,1842.591,135.042C1912.69,120,1993.095,120,2066.312,120C2139.529,120,2205.557,120,2251.866,120.121C2298.175,120.242,2324.763,120.485,2338.057,120.606L2351.352,120.727" id="L_WS_FE_2" class="edge-thickness-normal edge-pattern-solid edge-thickness-normal edge-pattern-solid flowchart-link" style=";" data-edge="true" data-et="edge" data-id="L_WS_FE_2" data-points="W3sieCI6MTY1Mi45MDYxODk1NTUxMjU4LCJ5IjoyMTAuMjV9LHsieCI6MTgzMi4yODUxNTYyNSwieSI6MTIwfSx7IngiOjIwNzMuNSwieSI6MTIwfSx7IngiOjIyNzEuNTg1OTM3NSwieSI6MTIwfSx7IngiOjIzNTUuMzUxNTYyNSwieSI6MTIwLjc2MzM5NTU4MTU5NDA0fV0=" marker-end="url(#my-svg_flowchart-v2-pointEnd)"/><path d="M1705.391,215.219L1726.54,209.682C1747.689,204.146,1789.987,193.073,1831.618,187.536C1873.25,182,1914.215,182,1934.697,182L1955.18,182" id="L_WS_TTS_0" class="edge-thickness-normal edge-pattern-solid edge-thickness-normal edge-pattern-solid flowchart-link" style=";" data-edge="true" data-et="edge" data-id="L_WS_TTS_0" data-points="W3sieCI6MTcwNS4zOTA2MjUsInkiOjIxNS4yMTg1MjQyOTEwMzYyNn0seyJ4IjoxODMyLjI4NTE1NjI1LCJ5IjoxODJ9LHsieCI6MTk1OS4xNzk2ODc1LCJ5IjoxODJ9XQ==" marker-end="url(#my-svg_flowchart-v2-pointEnd)"/><path d="M2187.82,182L2201.781,182C2215.742,182,2243.664,182,2274.651,176.658C2305.638,171.316,2339.689,160.632,2356.715,155.29L2373.741,149.947" id="L_TTS_FE_0" class="edge-thickness-normal edge-pattern-solid edge-thickness-normal edge-pattern-solid flowchart-link" style=";" data-edge="true" data-et="edge" data-id="L_TTS_FE_0" data-points="W3sieCI6MjE4Ny44MjAzMTI1LCJ5IjoxODJ9LHsieCI6MjI3MS41ODU5Mzc1LCJ5IjoxODJ9LHsieCI6MjM3Ny41NTczNzgxMTIwMzMzLCJ5IjoxNDguNzV9XQ==" marker-end="url(#my-svg_flowchart-v2-pointEnd)"/><path d="M2505.784,151.031L2534.344,170.859C2562.903,190.687,2620.022,230.344,2666.05,251.19C2712.078,272.037,2747.015,274.074,2764.484,275.093L2781.952,276.111" id="L_FE_TS_0" class="edge-thickness-normal edge-pattern-solid edge-thickness-normal edge-pattern-solid flowchart-link" style=";" data-edge="true" data-et="edge" data-id="L_FE_TS_0" data-points="W3sieCI6MjUwMi40OTg3MDg4OTU0NDY3LCJ5IjoxNDguNzV9LHsieCI6MjY3Ny4xNDA2MjUsInkiOjI3MH0seyJ4IjoyNzg1Ljk0NTMxMjUsInkiOjI3Ni4zNDM4MzQyNjg2MzkzfV0=" marker-start="url(#my-svg_flowchart-v2-pointStart)" marker-end="url(#my-svg_flowchart-v2-pointEnd)"/><path d="M2781.984,297.829L2764.51,300.274C2747.036,302.719,2712.088,307.61,2659.026,310.055C2605.964,312.5,2534.786,312.5,2467.194,312.5C2399.602,312.5,2335.594,312.5,2270.576,312.5C2205.557,312.5,2139.529,312.5,2066.312,312.5C1993.095,312.5,1912.69,312.5,1851.986,307.452C1791.282,302.405,1750.278,292.309,1729.776,287.261L1709.275,282.214" id="L_TS_WS_0" class="edge-thickness-normal edge-pattern-solid edge-thickness-normal edge-pattern-solid flowchart-link" style=";" data-edge="true" data-et="edge" data-id="L_TS_WS_0" data-points="W3sieCI6Mjc4NS45NDUzMTI1LCJ5IjoyOTcuMjc0Nzk3NzU1MjY1NjR9LHsieCI6MjY3Ny4xNDA2MjUsInkiOjMxMi41fSx7IngiOjI0NjMuNjA5Mzc1LCJ5IjozMTIuNX0seyJ4IjoyMjcxLjU4NTkzNzUsInkiOjMxMi41fSx7IngiOjIwNzMuNSwieSI6MzEyLjV9LHsieCI6MTgzMi4yODUxNTYyNSwieSI6MzEyLjV9LHsieCI6MTcwNS4zOTA2MjUsInkiOjI4MS4yNTcyOTg3MTUxMjIwM31d" marker-start="url(#my-svg_flowchart-v2-pointStart)" marker-end="url(#my-svg_flowchart-v2-pointEnd)"/></g><g class="edgeLabels"><g><rect class="background" style="stroke: none"/></g><g><rect class="background" style="stroke: none"/></g><g><rect class="background" style="stroke: none"/></g><g><rect class="background" style="stroke: none"/></g><g><rect class="background" style="stroke: none"/></g><g><rect class="background" style="stroke: none"/></g><g class="edgeLabel" transform="translate(177.0703125, 295.75)"><g class="label" data-id="L_U_TMUX_0" transform="translate(-50.2890625, -10.5)"><g><rect class="background" style="" x="-2" y="0" width="100.578125" height="21"/><text y="-10.1" style=""><tspan class="text-outer-tspan" x="0" y="-0.1em" dy="1.1em"><tspan font-style="normal" class="text-inner-tspan" font-weight="normal">Direct</tspan><tspan font-style="normal" class="text-inner-tspan" font-weight="normal"> prompt</tspan></tspan></text></g></g></g><g class="edgeLabel" transform="translate(1132.734375, 18.5)"><g class="label" data-id="L_U_FE_0" transform="translate(-52.546875, -10.5)"><g><rect class="background" style="" x="-2" y="0" width="105.09375" height="21"/><text y="-10.1" style=""><tspan class="text-outer-tspan" x="0" y="-0.1em" dy="1.1em"><tspan font-style="normal" class="text-inner-tspan" font-weight="normal">PTT</tspan><tspan font-style="normal" class="text-inner-tspan" font-weight="normal"> recording</tspan></tspan></text></g></g></g><g class="edgeLabel" transform="translate(1132.734375, 59.5)"><g class="label" data-id="L_U_FE_2" transform="translate(-36.51953125, -10.5)"><g><rect class="background" style="" x="-2" y="0" width="73.0390625" height="21"/><text y="-10.1" style=""><tspan class="text-outer-tspan" x="0" y="-0.1em" dy="1.1em"><tspan font-style="normal" class="text-inner-tspan" font-weight="normal">Text</tspan><tspan font-style="normal" class="text-inner-tspan" font-weight="normal"> input</tspan></tspan></text></g></g></g><g class="edgeLabel" transform="translate(2683.83386, 81.41522)"><g class="label" data-id="L_FE_ASRP_0" transform="translate(-46.4765625, -10.5)"><g><rect class="background" style="" x="-2" y="0" width="92.953125" height="21"/><text y="-10.1" style=""><tspan class="text-outer-tspan" x="0" y="-0.1em" dy="1.1em"><tspan font-style="normal" class="text-inner-tspan" font-weight="normal">Audio</tspan><tspan font-style="normal" class="text-inner-tspan" font-weight="normal"> binary</tspan></tspan></text></g></g></g><g class="edgeLabel" transform="translate(3122.83119, 75.70776)"><g class="label" data-id="L_ASRP_ASR_0" transform="translate(-98.9921875, -28.099998474121094)"><g><rect class="background" style="" x="-2" y="0" width="197.984375" height="56.19999694824219"/><text y="-10.1" style=""><tspan class="text-outer-tspan" x="0" y="-0.1em" dy="1.1em"><tspan font-style="normal" class="text-inner-tspan" font-weight="normal">JSON</tspan></tspan><tspan class="text-outer-tspan" x="0" y="1em" dy="1.1em"><tspan font-style="normal" class="text-inner-tspan" font-weight="normal">(audioBase64,mimeType,la</tspan></tspan><tspan class="text-outer-tspan" x="0" y="2.1em" dy="1.1em"><tspan font-style="normal" class="text-inner-tspan" font-weight="normal">ng)</tspan></tspan></text></g></g></g><g class="edgeLabel" transform="translate(3116.67609, 133.0021)"><g class="label" data-id="L_ASR_ASRP_0" transform="translate(-58.734375, -10.5)"><g><rect class="background" style="" x="-2" y="0" width="117.46875" height="21"/><text y="-10.1" style=""><tspan class="text-outer-tspan" x="0" y="-0.1em" dy="1.1em"><tspan font-style="normal" class="text-inner-tspan" font-weight="normal">JSON</tspan><tspan font-style="normal" class="text-inner-tspan" font-weight="normal"> transcript</tspan></tspan></text></g></g></g><g class="edgeLabel" transform="translate(2686.49315, 144.57226)"><g class="label" data-id="L_ASRP_FE_0" transform="translate(-37.54296875, -10.5)"><g><rect class="background" style="" x="-2" y="0" width="75.0859375" height="21"/><text y="-10.1" style=""><tspan class="text-outer-tspan" x="0" y="-0.1em" dy="1.1em"><tspan font-style="normal" class="text-inner-tspan" font-weight="normal">Transcript</tspan></tspan></text></g></g></g><g class="edgeLabel" transform="translate(2073.5, 255)"><g class="label" data-id="L_FE_WS_0" transform="translate(-92.71875, -11)"><g><rect class="background" style="" x="-2" y="0" width="185.4375" height="22"/><text y="-10.1" style=""><tspan class="text-outer-tspan" x="0" y="-0.1em" dy="1.1em"><tspan font-style="normal" class="text-inner-tspan" font-weight="normal">operator_response</tspan><tspan font-style="normal" class="text-inner-tspan" font-weight="normal"> JSON</tspan></tspan></text></g></g></g><g class="edgeLabel" transform="translate(1823.74046, 352.20765)"><g class="label" data-id="L_WS_BR_0" transform="translate(-19.34375, -10.5)"><g><rect class="background" style="" x="-2" y="0" width="38.6875" height="21"/><text y="-10.1" style=""><tspan class="text-outer-tspan" x="0" y="-0.1em" dy="1.1em"><tspan font-style="normal" class="text-inner-tspan" font-weight="normal">relay</tspan></tspan></text></g></g></g><g class="edgeLabel" transform="translate(1132.734375, 386.25)"><g class="label" data-id="L_BR_TMUX_0" transform="translate(-58.0234375, -10.5)"><g><rect class="background" style="" x="-2" y="0" width="116.046875" height="21"/><text y="-10.1" style=""><tspan class="text-outer-tspan" x="0" y="-0.1em" dy="1.1em"><tspan font-style="normal" class="text-inner-tspan" font-weight="normal">tmux</tspan><tspan font-style="normal" class="text-inner-tspan" font-weight="normal"> send-keys</tspan></tspan></text></g></g></g><g class="edgeLabel"><g class="label" data-id="L_TMUX_C_0" transform="translate(0, 0)"><text y="-10.1"><tspan class="text-outer-tspan" x="0" y="-0.1em" dy="1.1em"/></text></g></g><g class="edgeLabel" transform="translate(613.39476, 322.27862)"><g class="label" data-id="L_C_TMUX_0" transform="translate(-67.65625, -10.5)"><g><rect class="background" style="" x="-2" y="0" width="135.3125" height="21"/><text y="-10.1" style=""><tspan class="text-outer-tspan" x="0" y="-0.1em" dy="1.1em"><tspan font-style="normal" class="text-inner-tspan" font-weight="normal">Work</tspan><tspan font-style="normal" class="text-inner-tspan" font-weight="normal"> logs</tspan><tspan font-style="normal" class="text-inner-tspan" font-weight="normal"> /</tspan><tspan font-style="normal" class="text-inner-tspan" font-weight="normal"> results</tspan></tspan></text></g></g></g><g class="edgeLabel"><g class="label" data-id="BR-cyclic-special-1" transform="translate(0, 0)"><text y="-10.1"><tspan class="text-outer-tspan" x="0" y="-0.1em" dy="1.1em"/></text></g></g><g class="edgeLabel" transform="translate(2677.140625, 363.6499996185303)"><g class="label" data-id="BR-cyclic-special-mid" transform="translate(-80.2734375, -19.299999237060547)"><g><rect class="background" style="" x="-2" y="0" width="160.546875" height="38.599998474121094"/><text y="-10.1" style=""><tspan class="text-outer-tspan" x="0" y="-0.1em" dy="1.1em"><tspan font-style="normal" class="text-inner-tspan" font-weight="normal">capture-pane</tspan><tspan font-style="normal" class="text-inner-tspan" font-weight="normal"> (500ms,</tspan></tspan><tspan class="text-outer-tspan" x="0" y="1em" dy="1.1em"><tspan font-style="normal" class="text-inner-tspan" font-weight="normal">change-only)</tspan></tspan></text></g></g></g><g class="edgeLabel"><g class="label" data-id="BR-cyclic-special-2" transform="translate(0, 0)"><text y="-10.1"><tspan class="text-outer-tspan" x="0" y="-0.1em" dy="1.1em"/></text></g></g><g class="edgeLabel" transform="translate(1799.68887, 395.93317)"><g class="label" data-id="L_BR_WS_0" transform="translate(-101.89453125, -11)"><g><rect class="background" style="" x="-2" y="0" width="203.7890625" height="22"/><text y="-10.1" style=""><tspan class="text-outer-tspan" x="0" y="-0.1em" dy="1.1em"><tspan font-style="normal" class="text-inner-tspan" font-weight="normal">operator_terminal_snapshot</tspan></tspan></text></g></g></g><g class="edgeLabel"><g class="label" data-id="L_WS_FE_0" transform="translate(0, 0)"><text y="-10.1"><tspan class="text-outer-tspan" x="0" y="-0.1em" dy="1.1em"/></text></g></g><g class="edgeLabel" transform="translate(925.484375, 249.25)"><g class="label" data-id="L_C_MCP_0" transform="translate(-52.25, -10.5)"><g><rect class="background" style="" x="-2" y="0" width="104.5" height="21"/><text y="-10.1" style=""><tspan class="text-outer-tspan" x="0" y="-0.1em" dy="1.1em"><tspan font-style="normal" class="text-inner-tspan" font-weight="normal">stdio</tspan><tspan font-style="normal" class="text-inner-tspan" font-weight="normal"> tool</tspan><tspan font-style="normal" class="text-inner-tspan" font-weight="normal"> calls</tspan></tspan></text></g></g></g><g class="edgeLabel" transform="translate(1354.0625, 249.25)"><g class="label" data-id="L_MCP_WS_0" transform="translate(-66.328125, -10.5)"><g><rect class="background" style="" x="-2" y="0" width="132.65625" height="21"/><text y="-10.1" style=""><tspan class="text-outer-tspan" x="0" y="-0.1em" dy="1.1em"><tspan font-style="normal" class="text-inner-tspan" font-weight="normal">WebSocket</tspan><tspan font-style="normal" class="text-inner-tspan" font-weight="normal"> JSON</tspan></tspan></text></g></g></g><g class="edgeLabel"><g class="label" data-id="L_WS_FE_2" transform="translate(0, 0)"><text y="-10.1"><tspan class="text-outer-tspan" x="0" y="-0.1em" dy="1.1em"/></text></g></g><g class="edgeLabel" transform="translate(1832.28515625, 182)"><g class="label" data-id="L_WS_TTS_0" transform="translate(-44.703125, -10.5)"><g><rect class="background" style="" x="-2" y="0" width="89.40625" height="21"/><text y="-10.1" style=""><tspan class="text-outer-tspan" x="0" y="-0.1em" dy="1.1em"><tspan font-style="normal" class="text-inner-tspan" font-weight="normal">say</tspan><tspan font-style="normal" class="text-inner-tspan" font-weight="normal"> payload</tspan></tspan></text></g></g></g><g class="edgeLabel" transform="translate(2271.5859375, 182)"><g class="label" data-id="L_TTS_FE_0" transform="translate(-58.765625, -10.5)"><g><rect class="background" style="" x="-2" y="0" width="117.53125" height="21"/><text y="-10.1" style=""><tspan class="text-outer-tspan" x="0" y="-0.1em" dy="1.1em"><tspan font-style="normal" class="text-inner-tspan" font-weight="normal">audio</tspan><tspan font-style="normal" class="text-inner-tspan" font-weight="normal"> +</tspan><tspan font-style="normal" class="text-inner-tspan" font-weight="normal"> tts</tspan><tspan font-style="normal" class="text-inner-tspan" font-weight="normal"> state</tspan></tspan></text></g></g></g><g class="edgeLabel" transform="translate(2634.5835, 240.45353)"><g class="label" data-id="L_FE_TS_0" transform="translate(-43.3359375, -10.5)"><g><rect class="background" style="" x="-2" y="0" width="86.671875" height="21"/><text y="-10.1" style=""><tspan class="text-outer-tspan" x="0" y="-0.1em" dy="1.1em"><tspan font-style="normal" class="text-inner-tspan" font-weight="normal">HTTPS/WS</tspan></tspan></text></g></g></g><g class="edgeLabel"><g class="label" data-id="L_TS_WS_0" transform="translate(0, 0)"><text y="-10.1"><tspan class="text-outer-tspan" x="0" y="-0.1em" dy="1.1em"/></text></g></g></g><g class="nodes"><g class="node default" id="flowchart-U-0" transform="translate(54.890625, 74.25)"><rect class="basic label-container" style="" x="-46.890625" y="-27" width="93.78125" height="54"/><g class="label" style="" transform="translate(-16.890625, -12)"><rect/><foreignObject width="33.78125" height="24"><div xmlns="http://www.w3.org/1999/xhtml" style="display: table-cell; white-space: nowrap; line-height: 1.5; max-width: 200px; text-align: center;"><span class="nodeLabel"><p>User</p></span></div></foreignObject></g></g><g class="node default" id="flowchart-TMUX-1" transform="translate(379.6015625, 295.75)"><rect class="basic label-container" style="" x="-127.2421875" y="-27" width="254.484375" height="54"/><g class="label" style="" transform="translate(-97.2421875, -12)"><rect/><foreignObject width="194.484375" height="24"><div xmlns="http://www.w3.org/1999/xhtml" style="display: table-cell; white-space: nowrap; line-height: 1.5; max-width: 200px; text-align: center;"><span class="nodeLabel"><p>tmux Terminal\nAgent pane</p></span></div></foreignObject></g></g><g class="node default" id="flowchart-C-2" transform="translate(770.1953125, 249.25)"><rect class="basic label-container" style="" x="-78.0390625" y="-27" width="156.078125" height="54"/><g class="label" style="" transform="translate(-48.0390625, -12)"><rect/><foreignObject width="96.078125" height="24"><div xmlns="http://www.w3.org/1999/xhtml" style="display: table-cell; white-space: nowrap; line-height: 1.5; max-width: 200px; text-align: center;"><span class="nodeLabel"><p>Coding Agent</p></span></div></foreignObject></g></g><g class="node default" id="flowchart-MCP-3" transform="translate(1132.734375, 249.25)"><rect class="basic label-container" style="" x="-130" y="-39" width="260" height="78"/><g class="label" style="" transform="translate(-100, -24)"><rect/><foreignObject width="200" height="48"><div xmlns="http://www.w3.org/1999/xhtml" style="display: table; white-space: break-spaces; line-height: 1.5; max-width: 200px; text-align: center; width: 200px;"><span class="nodeLabel"><p>MCP Server\nface_event / face_say / face_ping</p></span></div></foreignObject></g></g><g class="node default" id="flowchart-WS-4" transform="translate(1575.390625, 249.25)"><rect class="basic label-container" style="" x="-130" y="-39" width="260" height="78"/><g class="label" style="" transform="translate(-100, -24)"><rect/><foreignObject width="200" height="48"><div xmlns="http://www.w3.org/1999/xhtml" style="display: table; white-space: break-spaces; line-height: 1.5; max-width: 200px; text-align: center; width: 200px;"><span class="nodeLabel"><p>face-app\nWebSocket + HTTP :8765</p></span></div></foreignObject></g></g><g class="node default" id="flowchart-FE-5" transform="translate(2463.609375, 121.75)"><rect class="basic label-container" style="" x="-108.2578125" y="-27" width="216.515625" height="54"/><g class="label" style="" transform="translate(-78.2578125, -12)"><rect/><foreignObject width="156.515625" height="24"><div xmlns="http://www.w3.org/1999/xhtml" style="display: table-cell; white-space: nowrap; line-height: 1.5; max-width: 200px; text-align: center;"><span class="nodeLabel"><p>Frontend UI\nBrowser</p></span></div></foreignObject></g></g><g class="node default" id="flowchart-BR-6" transform="translate(2073.5, 386.25)"><rect class="basic label-container" style="" x="-84.703125" y="-27" width="169.40625" height="54"/><g class="label" style="" transform="translate(-54.703125, -12)"><rect/><foreignObject width="109.40625" height="24"><div xmlns="http://www.w3.org/1999/xhtml" style="display: table-cell; white-space: nowrap; line-height: 1.5; max-width: 200px; text-align: center;"><span class="nodeLabel"><p>operator-bridge</p></span></div></foreignObject></g></g><g class="node default" id="flowchart-ASRP-7" transform="translate(2891.53125, 101.25)"><polygon points="-19.5,0 179.234375,0 198.734375,-39 0,-39" class="label-container" transform="translate(-89.6171875,19.5)"/><g class="label" style="" transform="translate(-82.1171875, -12)"><rect/><foreignObject width="164.234375" height="24"><div xmlns="http://www.w3.org/1999/xhtml" style="display: table-cell; white-space: nowrap; line-height: 1.5; max-width: 200px; text-align: center;"><span class="nodeLabel"><p>POST /api/operator/asr</p></span></div></foreignObject></g></g><g class="node default" id="flowchart-ASR-8" transform="translate(3378.6328125, 101.25)"><rect class="basic label-container" style="" x="-130" y="-39" width="260" height="78"/><g class="label" style="" transform="translate(-100, -24)"><rect/><foreignObject width="200" height="48"><div xmlns="http://www.w3.org/1999/xhtml" style="display: table; white-space: break-spaces; line-height: 1.5; max-width: 200px; text-align: center; width: 200px;"><span class="nodeLabel"><p>asr-worker\nParakeet ASR\nJA/EN</p></span></div></foreignObject></g></g><g class="node default" id="flowchart-TTS-9" transform="translate(2073.5, 182)"><rect class="basic label-container" style="" x="-114.3203125" y="-27" width="228.640625" height="54"/><g class="label" style="" transform="translate(-84.3203125, -12)"><rect/><foreignObject width="168.640625" height="24"><div xmlns="http://www.w3.org/1999/xhtml" style="display: table-cell; white-space: nowrap; line-height: 1.5; max-width: 200px; text-align: center;"><span class="nodeLabel"><p>tts-worker\nKokoro TTS</p></span></div></foreignObject></g></g><g class="node default" id="flowchart-TS-10" transform="translate(2891.53125, 282.5)"><rect class="basic label-container" style="" x="-105.5859375" y="-27" width="211.171875" height="54"/><g class="label" style="" transform="translate(-75.5859375, -12)"><rect/><foreignObject width="151.171875" height="24"><div xmlns="http://www.w3.org/1999/xhtml" style="display: table-cell; white-space: nowrap; line-height: 1.5; max-width: 200px; text-align: center;"><span class="nodeLabel"><p>Tailscale VPN / serve</p></span></div></foreignObject></g></g><g class="label edgeLabel" id="BR---BR---1" transform="translate(2463.609375, 363.6499996185303)"><rect width="0.1" height="0.1"/><g class="label" style="" transform="translate(0, 0)"><rect/><foreignObject width="0" height="0"><div xmlns="http://www.w3.org/1999/xhtml" style="display: table-cell; white-space: nowrap; line-height: 1.5; max-width: 10px; text-align: center;"><span class="nodeLabel"></span></div></foreignObject></g></g><g class="label edgeLabel" id="BR---BR---2" transform="translate(2891.53125, 386.25)"><rect width="0.1" height="0.1"/><g class="label" style="" transform="translate(0, 0)"><rect/><foreignObject width="0" height="0"><div xmlns="http://www.w3.org/1999/xhtml" style="display: table-cell; white-space: nowrap; line-height: 1.5; max-width: 10px; text-align: center;"><span class="nodeLabel"></span></div></foreignObject></g></g></g></g></g></svg>